<?xml version="1.0" encoding="utf-8"?>
<!-- Generator: Adobe Illustrator 27.2.0, SVG Export Plug-In . SVG Version: 6.00 Build 0)  -->
<svg version="1.1" id="Layer_1" xmlns="http://www.w3.org/2000/svg" xmlns:xlink="http://www.w3.org/1999/xlink" x="0px" y="0px"
	 viewBox="0 0 1600 885" style="enable-background:new 0 0 1600 885;" xml:space="preserve">
<style type="text/css">
	.st0{fill:#EEBBC3;}
	.st1{opacity:0.9;fill:#FFFFFF;enable-background:new    ;}
	.st2{opacity:0.4;fill:#FFFFFF;enable-background:new    ;}
	.st3{opacity:0.6;fill:#FFFFFF;enable-background:new    ;}
	.st4{opacity:0.3;fill:#FFFFFF;enable-background:new    ;}
	.st5{fill:#121629;}
	.st6{opacity:0.2;fill:#FFFFFF;enable-background:new    ;}
	.st7{opacity:0.2;enable-background:new    ;}
	.st8{opacity:0.5;fill:#FFFFFF;enable-background:new    ;}
	.st9{opacity:0.15;enable-background:new    ;}
	.st10{fill:#B2C9EF;}
	.st11{fill:#FFFFFF;}
	.st12{opacity:5.000000e-02;enable-background:new    ;}
	.st13{opacity:0.1;enable-background:new    ;}
	.st14{fill:#FC9D9D;}
	.st15{opacity:0.2;}
	.st16{opacity:0.15;fill:none;stroke:#000000;stroke-width:0.77;stroke-miterlimit:10;enable-background:new    ;}
	.st17{opacity:0.15;fill:none;stroke:#000000;stroke-width:1.03;stroke-miterlimit:10;enable-background:new    ;}
	.st18{opacity:0.3;}
</style>
<path class="st0" d="M243.9,858.8L151.3,501c-2.3-8.9-1-18.3,3.5-26.3L400.9,45.3c6.1-10.6,17.3-17.4,29.6-17.7l628.9-17
	c10.9-0.3,21.4,4.5,28.3,13L1442,459.8c6.8,8.4,9.4,19.5,7,30l-84.2,369H243.9z"/>
<path class="st1" d="M243.9,858.8L151.3,501c-2.3-8.9-1-18.3,3.5-26.3L400.9,45.3c6.1-10.6,17.3-17.4,29.6-17.7l628.9-17
	c10.9-0.3,21.4,4.5,28.3,13L1442,459.8c6.8,8.4,9.4,19.5,7,30l-84.2,369H243.9z"/>
<path class="st0" d="M1409.7,554.1v107.5l-45,197.2l-36.7,0.9l0.9-306.1L1409.7,554.1z"/>
<path class="st0" d="M239,859.4h497.5l25.4-147.7V552.6H239V859.4z"/>
<path class="st2" d="M239,859.4h497.5l25.4-147.7V552.6H239V859.4z"/>
<path class="st3" d="M746.1,563.4H580.8v55.3h165.3V563.4z"/>
<path class="st0" d="M688,578.7h-49.2c-1.7,0-3.1-1.4-3.1-3.1s1.4-3.1,3.1-3.1H688c1.7,0,3.1,1.4,3.1,3.1S689.7,578.7,688,578.7z"/>
<path class="st3" d="M746.1,626.4H580.8v55.3h165.3V626.4z"/>
<path class="st0" d="M688,641.7h-49.2c-1.7,0-3.1-1.4-3.1-3.1s1.4-3.1,3.1-3.1H688c1.7,0,3.1,1.4,3.1,3.1S689.7,641.7,688,641.7z"/>
<path class="st3" d="M746.1,689.4H580.8v55.3h165.3V689.4z"/>
<path class="st0" d="M688,704.7h-49.2c-1.7,0-3.1-1.4-3.1-3.1s1.4-3.1,3.1-3.1H688c1.7,0,3.1,1.4,3.1,3.1S689.7,704.7,688,704.7z"/>
<path class="st3" d="M746.7,752.4H580.8v55.3h152.7L746.7,752.4z"/>
<path class="st0" d="M688,767.7h-49.2c-1.7,0-3.1-1.4-3.1-3.1s1.4-3.1,3.1-3.1H688c1.7,0,3.1,1.4,3.1,3.1S689.7,767.7,688,767.7z"/>
<path class="st3" d="M572,563.4H424v117.3h148V563.4z"/>
<path class="st0" d="M529.5,576c0,1.5-1.2,2.7-2.7,2.7h-57.6c-1.5,0-2.7-1.2-2.7-2.7s1.2-2.7,2.7-2.7h57.6
	C528.3,573.4,529.5,574.5,529.5,576z"/>
<path class="st3" d="M572,689.4H424v117.3h148V689.4z"/>
<path class="st0" d="M529.5,702c0,1.5-1.2,2.7-2.7,2.7h-57.6c-1.5,0-2.7-1.2-2.7-2.7s1.2-2.7,2.7-2.7h57.6
	C528.3,699.4,529.5,700.5,529.5,702z"/>
<path class="st4" d="M749,807.7H239v8l508,1L749,807.7z"/>
<path class="st0" d="M1328,859.7l-532-0.3V552.6h532.9L1328,859.7z"/>
<path class="st2" d="M1328,859.7l-532-0.3V552.6h532.9L1328,859.7z"/>
<path class="st5" d="M1427.7,538.3h-1212v15.8h1212V538.3z"/>
<path class="st6" d="M1427.7,538.3h-1212v15.8h1212V538.3z"/>
<path class="st3" d="M1318.1,563.4h-165.3v55.3h165.3V563.4z"/>
<path class="st0" d="M1260,578.7h-49.2c-1.7,0-3.1-1.4-3.1-3.1s1.4-3.1,3.1-3.1h49.2c1.7,0,3.1,1.4,3.1,3.1S1261.7,578.7,1260,578.7
	z"/>
<path class="st3" d="M1318.1,626.4h-165.3v55.3h165.3V626.4z"/>
<path class="st0" d="M1260,641.7h-49.2c-1.7,0-3.1-1.4-3.1-3.1s1.4-3.1,3.1-3.1h49.2c1.7,0,3.1,1.4,3.1,3.1S1261.7,641.7,1260,641.7
	z"/>
<path class="st3" d="M1318.1,689.4h-165.3v55.3h165.3V689.4z"/>
<path class="st0" d="M1260,704.7h-49.2c-1.7,0-3.1-1.4-3.1-3.1s1.4-3.1,3.1-3.1h49.2c1.7,0,3.1,1.4,3.1,3.1S1261.7,704.7,1260,704.7
	z"/>
<path class="st3" d="M1318.7,752.4h-165.9v55.3h165.6L1318.7,752.4z"/>
<path class="st0" d="M1260,767.7h-49.2c-1.7,0-3.1-1.4-3.1-3.1s1.4-3.1,3.1-3.1h49.2c1.7,0,3.1,1.4,3.1,3.1S1261.7,767.7,1260,767.7
	z"/>
<path class="st3" d="M972.1,563.4H806.8v55.3h165.3V563.4z"/>
<path class="st0" d="M914,578.7h-49.2c-1.7,0-3.1-1.4-3.1-3.1s1.4-3.1,3.1-3.1H914c1.7,0,3.1,1.4,3.1,3.1S915.7,578.7,914,578.7z"/>
<path class="st3" d="M972.1,626.4H806.8v55.3h165.3V626.4z"/>
<path class="st0" d="M914,641.7h-49.2c-1.7,0-3.1-1.4-3.1-3.1s1.4-3.1,3.1-3.1H914c1.7,0,3.1,1.4,3.1,3.1S915.7,641.7,914,641.7z"/>
<path class="st3" d="M972.1,689.4H806.8v55.3h165.3V689.4z"/>
<path class="st0" d="M914,704.7h-49.2c-1.7,0-3.1-1.4-3.1-3.1s1.4-3.1,3.1-3.1H914c1.7,0,3.1,1.4,3.1,3.1S915.7,704.7,914,704.7z"/>
<path class="st3" d="M972.1,752.4H806.8v55.3h165.3V752.4z"/>
<path class="st0" d="M914,767.7h-49.2c-1.7,0-3.1-1.4-3.1-3.1s1.4-3.1,3.1-3.1H914c1.7,0,3.1,1.4,3.1,3.1S915.7,767.7,914,767.7z"/>
<path class="st3" d="M1144,563.4H981v244.3h163V563.4z"/>
<path class="st0" d="M1122.6,651.5c-2,0-3.5-1.6-3.5-3.5v-48.8c0-2,1.6-3.5,3.6-3.5s3.6,1.6,3.6,3.5V648
	C1126.2,649.9,1124.6,651.5,1122.6,651.5z"/>
<path class="st3" d="M414,562.4H251v244.3h163V562.4z"/>
<path class="st0" d="M392.6,651.5c-2,0-3.6-1.6-3.6-3.5v-48.8c0-2,1.6-3.5,3.5-3.5c2,0,3.5,1.6,3.5,3.5V648
	C396.2,649.9,394.6,651.5,392.6,651.5z"/>
<path class="st4" d="M1376,807.7H796v8l578,1L1376,807.7z"/>
<path class="st7" d="M1427.8,538.3h-83.2v15.8h83.2V538.3z"/>
<path class="st0" d="M1088.6,577.9H512v283h576.6V577.9z"/>
<path class="st8" d="M1088.6,577.9H512v283h576.6V577.9z"/>
<path class="st5" d="M1111,559.8H489.6v18H1111V559.8z"/>
<path class="st6" d="M1111,559.8H489.6v18H1111V559.8z"/>
<path class="st7" d="M1111,559.8h-94.2v18h94.2V559.8z"/>
<path class="st0" d="M997.4,577.9H511.5v7.5l485.9,3.7v271.7h90.6V577.9H997.4z"/>
<path class="st6" d="M997.4,577.9H511.5v7.5l485.9,3.7v271.7h90.6V577.9H997.4z"/>
<path class="st9" d="M1088.7,811.8h-577v47h577V811.8z"/>
<path class="st0" d="M489.1,26.7l-28,0.8v88.7h28V26.7z"/>
<path class="st4" d="M489.1,26.7l-28,0.8v88.7h28V26.7z"/>
<path class="st0" d="M568.1,209.2h28l-107-93h-28L568.1,209.2z"/>
<path class="st8" d="M568.1,209.2h28l-107-93h-28L568.1,209.2z"/>
<path class="st0" d="M596.1,209.2h-28v31h28V209.2z"/>
<path class="st4" d="M596.1,209.2h-28v31h28V209.2z"/>
<path class="st0" d="M363.1,116.2h98V27.5l-30.6,0.8c-12.3,0.3-23.5,7-29.6,17.7l-40.2,70.2H363.1z"/>
<path class="st0" d="M568.1,209.2l-107-93h-98h-2.4l-53.3,93H568.1z"/>
<path class="st3" d="M568.1,209.2l-107-93h-98h-2.4l-53.3,93H568.1z"/>
<path class="st0" d="M289.6,240.2h278.5v-31H307.4L289.6,240.2z M532.5,214.3c5.8,0,10.5,4.7,10.5,10.5c0,5.8-4.7,10.5-10.5,10.5
	s-10.5-4.7-10.5-10.5C522,219,526.7,214.3,532.5,214.3z M496,214.3c5.8,0,10.5,4.7,10.5,10.5c0,5.8-4.7,10.5-10.4,10.5
	c-5.8,0-10.5-4.7-10.5-10.5C485.6,219,490.3,214.3,496,214.3z"/>
<path class="st2" d="M363,115.7h98V27l-30.6,0.8c-12.3,0.3-23.5,7-29.6,17.7l-40.2,70.2H363z"/>
<path class="st2" d="M289.6,240.2h278.5v-31H307.4L289.6,240.2z M532.5,214.3c5.8,0,10.5,4.7,10.5,10.5c0,5.8-4.7,10.5-10.5,10.5
	s-10.5-4.7-10.5-10.5C522,219,526.7,214.3,532.5,214.3z M496,214.3c5.8,0,10.5,4.7,10.5,10.5c0,5.8-4.7,10.5-10.4,10.5
	c-5.8,0-10.5-4.7-10.5-10.5C485.6,219,490.3,214.3,496,214.3z"/>
<path class="st10" d="M496,219.4c-3,0-5.4,2.4-5.4,5.4s2.4,5.4,5.4,5.4s5.4-2.4,5.4-5.4S499,219.4,496,219.4z"/>
<path class="st10" d="M532.5,219.4c-3,0-5.4,2.4-5.4,5.4s2.4,5.4,5.4,5.4s5.4-2.4,5.4-5.4S535.5,219.4,532.5,219.4z"/>
<path class="st3" d="M496,219.4c-3,0-5.4,2.4-5.4,5.4s2.4,5.4,5.4,5.4s5.4-2.4,5.4-5.4S499,219.4,496,219.4z"/>
<path class="st3" d="M532.5,219.4c-3,0-5.4,2.4-5.4,5.4s2.4,5.4,5.4,5.4s5.4-2.4,5.4-5.4S535.5,219.4,532.5,219.4z"/>
<path class="st10" d="M496,214.3c-5.8,0-10.5,4.7-10.5,10.5c0,5.8,4.7,10.5,10.5,10.5s10.5-4.7,10.5-10.5
	C506.5,219,501.8,214.3,496,214.3z M496,230.1c-3,0-5.4-2.4-5.4-5.4s2.4-5.4,5.4-5.4s5.4,2.4,5.4,5.4S499,230.1,496,230.1
	C496.1,230.1,496.1,230.1,496,230.1z"/>
<path class="st10" d="M532.5,214.3c-5.8,0-10.4,4.7-10.4,10.5c0,5.8,4.7,10.4,10.5,10.4c5.8,0,10.4-4.7,10.4-10.5
	C543,219,538.3,214.3,532.5,214.3z M532.5,230.1c-3,0-5.4-2.4-5.4-5.4s2.4-5.4,5.4-5.4s5.4,2.4,5.4,5.4S535.5,230.1,532.5,230.1z"/>
<path class="st0" d="M1418.1,862.5H196.8c-0.8,0.1-1.6-0.4-1.7-1.3c-0.1-0.8,0.4-1.6,1.3-1.7c0.2,0,0.3,0,0.5,0h1221.3
	c0.8-0.1,1.6,0.4,1.7,1.3c0.1,0.8-0.4,1.6-1.3,1.7C1418.4,862.5,1418.3,862.5,1418.1,862.5z"/>
<path class="st3" d="M1418.1,862.5H196.8c-0.8,0.1-1.6-0.4-1.7-1.3c-0.1-0.8,0.4-1.6,1.3-1.7c0.2,0,0.3,0,0.5,0h1221.3
	c0.8-0.1,1.6,0.4,1.7,1.3c0.1,0.8-0.4,1.6-1.3,1.7C1418.4,862.5,1418.3,862.5,1418.1,862.5z"/>
<path class="st10" d="M623.7,695.8h-5v163h5V695.8z"/>
<path class="st10" d="M725.7,695.8h-5v163h5V695.8z"/>
<path class="st10" d="M675.7,695.8h-5v163h5V695.8z"/>
<path class="st5" d="M613.7,668.8h119c4.4,0,8,3.6,8,8v11c0,4.4-3.6,8-8,8h-119c-4.4,0-8-3.6-8-8v-11
	C605.7,672.4,609.3,668.8,613.7,668.8z"/>
<path class="st9" d="M710.7,668.8h22c4.4,0,8,3.6,8,8v11c0,4.4-3.6,8-8,8h-22V668.8z"/>
<path class="st9" d="M623.7,695.8h-2v163h2V695.8z"/>
<path class="st9" d="M675.7,695.8h-2v163h2V695.8z"/>
<path class="st9" d="M725.7,695.8h-2v163h2V695.8z"/>
<path class="st10" d="M725.7,821.8h-107v5h107V821.8z"/>
<path class="st10" d="M820.7,696.8h-5v163h5V696.8z"/>
<path class="st10" d="M922.7,696.8h-5v163h5V696.8z"/>
<path class="st10" d="M872.7,696.8h-5v163h5V696.8z"/>
<path class="st5" d="M810.7,669.8h119c4.4,0,8,3.6,8,8v11c0,4.4-3.6,8-8,8h-119c-4.4,0-8-3.6-8-8v-11
	C802.7,673.4,806.3,669.8,810.7,669.8z"/>
<path class="st9" d="M907.7,669.8h22c4.4,0,8,3.6,8,8v11c0,4.4-3.6,8-8,8h-22V669.8z"/>
<path class="st9" d="M820.7,696.8h-2v163h2V696.8z"/>
<path class="st9" d="M872.7,696.8h-2v163h2V696.8z"/>
<path class="st9" d="M922.7,696.8h-2v163h2V696.8z"/>
<path class="st10" d="M922.7,822.8h-107v5h107V822.8z"/>
<path class="st10" d="M1418,467.7h28.8l-1.6-2H1418v-33h2.4l-1.6-2H180.1l-1.1,2h21.3v33h-36v-7.6l-2,3.5v4.1h-2.2l-1.1,2h3.3v33
	h-10.9c-0.1,0.7,0.8,1.3,0.7,2h10.2v33H160l0.5,2h1277.4l0.4-2H1418v-33h27.9c0.1-0.7,0.2-1.3,0.3-2H1418V467.7z M1416,500.7h-36
	v-33h36V500.7z M1340,465.7h-36v-33h36V465.7z M1342,432.7h36v33h-36V432.7z M316.2,467.7h36v33h-36V467.7z M314.2,500.7h-36v-33h36
	V500.7z M354.2,467.7h36v33h-36V467.7z M392.2,467.7h36v33h-36V467.7z M430.2,467.7h36v33h-36V467.7z M468.2,467.7h36v33h-36V467.7z
	 M506.2,467.7h36v33h-36V467.7z M544.2,467.7h36v33h-36V467.7z M582.2,467.7h36v33h-36V467.7z M620.2,467.7h36v33h-36V467.7z
	 M658.2,467.7h36v33h-36V467.7z M696.2,467.7h36v33h-36V467.7z M734.2,467.7h36v33h-36V467.7z M772.2,467.7h36v33h-36V467.7z
	 M810.2,467.7h36v33h-36V467.7z M848.2,467.7h36v33h-36V467.7z M886.2,467.7h36v33h-36V467.7z M924.2,467.7h36v33h-36V467.7z
	 M962.2,467.7h36v33h-36V467.7z M1000.2,467.7h36v33h-36V467.7z M1038.2,467.7h36v33h-36V467.7z M1076.2,467.7h36v33h-36V467.7z
	 M1114.2,467.7h36v33h-36V467.7z M1152.2,467.7h36v33h-36V467.7z M1190.2,467.7h36v33h-36V467.7z M1228.2,467.7h36v33h-36V467.7z
	 M1266.2,467.7h36v33h-36V467.7z M1304.2,467.7h36v33h-36V467.7z M1302.2,465.7h-36v-33h36V465.7z M1264.2,465.7h-36v-33h36V465.7z
	 M1226.2,465.7h-36v-33h36V465.7z M1188.2,465.7h-36v-33h36V465.7z M1150.2,465.7h-36v-33h36V465.7z M1112.2,465.7h-36v-33h36V465.7
	z M1074.2,465.7h-36v-33h36V465.7z M1036.2,465.7h-36v-33h36V465.7z M998.2,465.7h-36v-33h36V465.7z M960.2,465.7h-36v-33h36V465.7z
	 M922.2,465.7h-36v-33h36V465.7z M884.2,465.7h-36v-33h36V465.7z M846.2,465.7h-36v-33h36V465.7z M808.2,465.7h-36v-33h36V465.7z
	 M770.2,465.7h-36v-33h36V465.7z M732.2,465.7h-36v-33h36V465.7z M694.2,465.7h-36v-33h36V465.7z M656.2,465.7h-36v-33h36V465.7z
	 M618.2,465.7h-36v-33h36V465.7z M580.2,465.7h-36v-33h36V465.7z M542.2,465.7h-36v-33h36V465.7z M504.2,465.7h-36v-33h36V465.7z
	 M466.2,465.7h-36v-33h36V465.7z M428.2,465.7h-36v-33h36V465.7z M390.2,465.7h-36v-33h36V465.7z M352.2,465.7h-36v-33h36V465.7z
	 M314.2,465.7h-36v-33h36V465.7z M276.2,465.7h-36v-33h36V465.7z M276.2,467.7v33h-36v-33H276.2z M238.2,500.7h-36v-33h36V500.7z
	 M238.2,502.7v33h-36v-33H238.2z M240.2,502.7h36v33h-36V502.7z M278.2,502.7h36v33h-36V502.7z M316.2,502.7h36v33h-36V502.7z
	 M354.2,502.7h36v33h-36V502.7z M392.2,502.7h36v33h-36V502.7z M430.2,502.7h36v33h-36V502.7z M468.2,502.7h36v33h-36V502.7z
	 M506.2,502.7h36v33h-36V502.7z M544.2,502.7h36v33h-36V502.7z M582.2,502.7h36v33h-36V502.7z M620.2,502.7h36v33h-36V502.7z
	 M658.2,502.7h36v33h-36V502.7z M696.2,502.7h36v33h-36V502.7z M734.2,502.7h36v33h-36V502.7z M772.2,502.7h36v33h-36V502.7z
	 M810.2,502.7h36v33h-36V502.7z M848.2,502.7h36v33h-36V502.7z M886.2,502.7h36v33h-36V502.7z M924.2,502.7h36v33h-36V502.7z
	 M962.2,502.7h36v33h-36V502.7z M1000.2,502.7h36v33h-36V502.7z M1038.2,502.7h36v33h-36V502.7z M1076.2,502.7h36v33h-36V502.7z
	 M1114.2,502.7h36v33h-36V502.7z M1152.2,502.7h36v33h-36V502.7z M1190.2,502.7h36v33h-36V502.7z M1228.2,502.7h36v33h-36V502.7z
	 M1266.2,502.7h36v33h-36V502.7z M1304.2,502.7h36v33h-36V502.7z M1342.2,502.7h36v33h-36V502.7z M1342.2,500.7v-33h36v33H1342.2z
	 M1416.2,465.7h-36v-33h36V465.7z M202.5,432.7h36v33h-36V432.7z M164.5,467.7h36v33h-36V467.7z M164.5,502.7h36v33h-36V502.7z
	 M1416.2,535.7h-36v-33h36V535.7z"/>
<path class="st8" d="M1418,467.7h28.8l-1.6-2H1418v-33h2.4l-1.6-2H180.1l-1.1,2h21.3v33h-36v-7.6l-2,3.5v4.1h-2.2l-1.1,2h3.3v33
	h-10.9c-0.1,0.7,0.8,1.3,0.7,2h10.2v33H160l0.5,2h1277.4l0.4-2H1418v-33h27.9c0.1-0.7,0.2-1.3,0.3-2H1418V467.7z M1416,500.7h-36
	v-33h36V500.7z M1340,465.7h-36v-33h36V465.7z M1342,432.7h36v33h-36V432.7z M316.2,467.7h36v33h-36V467.7z M314.2,500.7h-36v-33h36
	V500.7z M354.2,467.7h36v33h-36V467.7z M392.2,467.7h36v33h-36V467.7z M430.2,467.7h36v33h-36V467.7z M468.2,467.7h36v33h-36V467.7z
	 M506.2,467.7h36v33h-36V467.7z M544.2,467.7h36v33h-36V467.7z M582.2,467.7h36v33h-36V467.7z M620.2,467.7h36v33h-36V467.7z
	 M658.2,467.7h36v33h-36V467.7z M696.2,467.7h36v33h-36V467.7z M734.2,467.7h36v33h-36V467.7z M772.2,467.7h36v33h-36V467.7z
	 M810.2,467.7h36v33h-36V467.7z M848.2,467.7h36v33h-36V467.7z M886.2,467.7h36v33h-36V467.7z M924.2,467.7h36v33h-36V467.7z
	 M962.2,467.7h36v33h-36V467.7z M1000.2,467.7h36v33h-36V467.7z M1038.2,467.7h36v33h-36V467.7z M1076.2,467.7h36v33h-36V467.7z
	 M1114.2,467.7h36v33h-36V467.7z M1152.2,467.7h36v33h-36V467.7z M1190.2,467.7h36v33h-36V467.7z M1228.2,467.7h36v33h-36V467.7z
	 M1266.2,467.7h36v33h-36V467.7z M1304.2,467.7h36v33h-36V467.7z M1302.2,465.7h-36v-33h36V465.7z M1264.2,465.7h-36v-33h36V465.7z
	 M1226.2,465.7h-36v-33h36V465.7z M1188.2,465.7h-36v-33h36V465.7z M1150.2,465.7h-36v-33h36V465.7z M1112.2,465.7h-36v-33h36V465.7
	z M1074.2,465.7h-36v-33h36V465.7z M1036.2,465.7h-36v-33h36V465.7z M998.2,465.7h-36v-33h36V465.7z M960.2,465.7h-36v-33h36V465.7z
	 M922.2,465.7h-36v-33h36V465.7z M884.2,465.7h-36v-33h36V465.7z M846.2,465.7h-36v-33h36V465.7z M808.2,465.7h-36v-33h36V465.7z
	 M770.2,465.7h-36v-33h36V465.7z M732.2,465.7h-36v-33h36V465.7z M694.2,465.7h-36v-33h36V465.7z M656.2,465.7h-36v-33h36V465.7z
	 M618.2,465.7h-36v-33h36V465.7z M580.2,465.7h-36v-33h36V465.7z M542.2,465.7h-36v-33h36V465.7z M504.2,465.7h-36v-33h36V465.7z
	 M466.2,465.7h-36v-33h36V465.7z M428.2,465.7h-36v-33h36V465.7z M390.2,465.7h-36v-33h36V465.7z M352.2,465.7h-36v-33h36V465.7z
	 M314.2,465.7h-36v-33h36V465.7z M276.2,465.7h-36v-33h36V465.7z M276.2,467.7v33h-36v-33H276.2z M238.2,500.7h-36v-33h36V500.7z
	 M238.2,502.7v33h-36v-33H238.2z M240.2,502.7h36v33h-36V502.7z M278.2,502.7h36v33h-36V502.7z M316.2,502.7h36v33h-36V502.7z
	 M354.2,502.7h36v33h-36V502.7z M392.2,502.7h36v33h-36V502.7z M430.2,502.7h36v33h-36V502.7z M468.2,502.7h36v33h-36V502.7z
	 M506.2,502.7h36v33h-36V502.7z M544.2,502.7h36v33h-36V502.7z M582.2,502.7h36v33h-36V502.7z M620.2,502.7h36v33h-36V502.7z
	 M658.2,502.7h36v33h-36V502.7z M696.2,502.7h36v33h-36V502.7z M734.2,502.7h36v33h-36V502.7z M772.2,502.7h36v33h-36V502.7z
	 M810.2,502.7h36v33h-36V502.7z M848.2,502.7h36v33h-36V502.7z M886.2,502.7h36v33h-36V502.7z M924.2,502.7h36v33h-36V502.7z
	 M962.2,502.7h36v33h-36V502.7z M1000.2,502.7h36v33h-36V502.7z M1038.2,502.7h36v33h-36V502.7z M1076.2,502.7h36v33h-36V502.7z
	 M1114.2,502.7h36v33h-36V502.7z M1152.2,502.7h36v33h-36V502.7z M1190.2,502.7h36v33h-36V502.7z M1228.2,502.7h36v33h-36V502.7z
	 M1266.2,502.7h36v33h-36V502.7z M1304.2,502.7h36v33h-36V502.7z M1342.2,502.7h36v33h-36V502.7z M1342.2,500.7v-33h36v33H1342.2z
	 M1416.2,465.7h-36v-33h36V465.7z M202.5,432.7h36v33h-36V432.7z M164.5,467.7h36v33h-36V467.7z M164.5,502.7h36v33h-36V502.7z
	 M1416.2,535.7h-36v-33h36V535.7z"/>
<path class="st0" d="M1147.8,97.7H1035v279h339.4L1147.8,97.7z"/>
<path class="st3" d="M1147.8,97.7H1035v279h339.4L1147.8,97.7z"/>
<path class="st11" d="M1157.5,109.6h-109.7v255.2h317L1157.5,109.6z"/>
<path class="st12" d="M1051,224.7l87.7-115.1h18.8l37.5,46.1l-144,174.5V224.7z"/>
<path class="st12" d="M1103.7,364.8L1243,215.7l-11.7-15.2l-151.6,164.3H1103.7z"/>
<path class="st12" d="M1174,364.7l94.9-118l36.3,44.8l-67.4,73.2H1174z"/>
<path class="st0" d="M1205.5,168.7v201h13v-185L1205.5,168.7z"/>
<path class="st3" d="M1205.5,168.7v201h13v-185L1205.5,168.7z"/>
<path class="st0" d="M1051,109.7h-4v255h4V109.7z"/>
<path class="st4" d="M1051,109.7h-4v255h4V109.7z"/>
<path class="st0" d="M1217,182.9v181.8h4V187.8L1217,182.9z"/>
<path class="st4" d="M1217,182.9v181.8h4V187.8L1217,182.9z"/>
<path class="st11" d="M468,383.9c-0.9,7-6,12.5-11.9,16c-3.4,2-7.8,2.7-11,5.2c-2.9,2.4-4,6.3-3.5,10c0.9,8,8.2,13.8,13.7,19
	c8.4,8,19,20.4,12.2,32.7c-3.2,5.7-9.5,9.5-15.4,11.9c-6.7,2.5-13.7,3.8-20.9,4c-8.2,0.4-17.4-0.8-22.7,7c-4.7,7-4.2,12-1.7,19.5
	c0,0-2.1,0.5-2.3,0.3c-2.8-4.1-5.2-8.5-7-13.2c-3.2-7.5-4-15.5,2.5-22c3.8-3.8,9-6,13.3-9.1c5.7-4,8.5-9.6,6.3-16.5
	c-2.2-7.2-7.9-12.5-11.4-19c-3.3-5.8-3.4-12.9-0.4-18.8c2.7-5.4,7-9.9,12.3-12.9c6-3.4,12.5-4,19.2-4.2c7.6-0.2,16.8-0.7,21.5-7.7
	c4.6-6.9,2.9-15.7,0.9-23.1c0-0.1,0-0.3,0.1-0.3c0.1,0,0.3,0,0.3,0.1C465.5,369.4,469,376.5,468,383.9z"/>
<path class="st5" d="M477.2,503.2h-18.9c-2.2,0-4-1.8-4-4s1.8-4,4-4h18.9c2.2,0,4,1.8,4,4S479.4,503.2,477.2,503.2z"/>
<path class="st5" d="M368.9,503.2H350c-2.2,0-4-1.8-4-4s1.8-4,4-4h22.9v4C372.9,501.4,371.1,503.2,368.9,503.2z"/>
<path class="st10" d="M362.2,489.2c0,0,2.9,42.5,16.5,42.5h71.9c13.6,0,16.5-42.5,16.5-42.5H362.2z"/>
<path class="st13" d="M439.7,489.2c0,0,0.5,39.8-13.3,42.7h16c0,0,16.5,3.7,17.4-42.7H439.7z"/>
<path class="st11" d="M1039.4,527.4l7.2,10.5v0.1h47.8l6-12.6l-7.6-41.3l-4.3-23.1v-12.3h-38v10.7L1039.4,527.4z"/>
<path class="st11" d="M1050.5,448.7h38l1-0.2c0.6-0.1,1.1-0.7,1-1.3c-0.1-0.5-0.5-0.9-1-1c-1.8-0.3-3.6-0.5-5.5-0.5h-33.2
	C1050.8,445.7,1048.2,446.8,1050.5,448.7z"/>
<path class="st11" d="M1041.8,515.2l0.9-2.4c-3-1.2-7-3.2-9-6.3c-0.7-0.9-1-2-1.1-3.1v-0.2v-0.1c0-0.3-4.1-30-5-38.5
	c-0.3-1.8,0.1-3.6,1.3-5c1.9-2.1,5.2-2.2,5.3-2.2h17.5v-2.6h-17.5c-0.2,0-4.5,0.1-7.2,3.1c-1.6,1.9-2.3,4.5-1.9,7
	c0.9,8.2,4.8,36.5,5,38.5C1029.9,504.6,1030.4,510.9,1041.8,515.2z"/>
<path class="st13" d="M1050.5,448.7h38c0,0-25.8-0.7-31.1-3h-6.6C1050.7,445.7,1048.2,446.8,1050.5,448.7z"/>
<path class="st10" d="M1042.9,525.4l6.3,9.3l0.1,0.1h42.3l5.3-11.2l-6.7-36.5c-2.6-0.3-7.2-0.6-10.5,0.2c-4.1,1-21.8-1.8-30.3-1.8
	L1042.9,525.4z"/>
<path class="st6" d="M1042.9,525.4l6.3,9.3l0.1,0.1h42.3l5.3-11.2l-6.7-36.5c-2.6-0.3-7.2-0.6-10.5,0.2c-4.1,1-21.8-1.8-30.3-1.8
	L1042.9,525.4z"/>
<path class="st11" d="M1091.2,526.4c-1.3-0.2-2.5-0.6-3.7-1c-1-0.5-2-0.8-3.1-0.9c-0.7,0.1-6.8-0.6-7,0.5l4.3,2.1
	C1081.7,527.1,1090.2,527.1,1091.2,526.4z"/>
<path class="st13" d="M1091.2,526.4c-1.3-0.2-2.5-0.6-3.7-1c-1-0.5-2-0.8-3.1-0.9c-0.7,0.1-6.8-0.6-7,0.5l4.3,2.1
	C1081.7,527.1,1090.2,527.1,1091.2,526.4z"/>
<path class="st11" d="M1081.8,526.8c0,0-4.1-2.5-4.5-1.9c-0.4,0.6-0.4,3.7-0.7,4.8c-0.4,0.8,0,1.8,0.8,2.2c0.1,0,0.1,0.1,0.2,0.1
	c1.1,0.6,4.1,2.5,4.1,2.5L1081.8,526.8z"/>
<path class="st13" d="M1081.8,526.8c0,0-4.1-2.5-4.5-1.9c-0.4,0.6-0.4,3.7-0.7,4.8c-0.4,0.8,0,1.8,0.8,2.2c0.1,0,0.1,0.1,0.2,0.1
	c1.1,0.6,4.1,2.5,4.1,2.5L1081.8,526.8z"/>
<path class="st11" d="M1091.2,526.4c0,0-3.2,0.4-5.5,0.4c-2.3,0-3.8-0.5-4.1,0.2c-0.3,0.7-0.3,5.2-0.6,6.3c-0.3,1.1,0.7,1.5,3.1,1.2
	s6.4,0.2,6.3-0.9C1090.3,532.5,1092,526.3,1091.2,526.4z"/>
<path class="st12" d="M1091.2,526.4c0,0-3.2,0.4-5.5,0.4c-2.3,0-3.8-0.5-4.1,0.2c-0.3,0.7-0.3,5.2-0.6,6.3c-0.3,1.1,0.7,1.5,3.1,1.2
	s6.4,0.2,6.3-0.9C1090.3,532.5,1092,526.3,1091.2,526.4z"/>
<path class="st11" d="M1086.9,527.5c0,0,3.1-0.4,3.8-0.4c0.7,0-0.1,2.4-0.2,3.1c0,0-0.3,0.1-0.3-0.2s0.2-1.6-0.2-1.8
	s-1.1-0.6-1.7-0.5C1087.7,527.8,1086.6,527.7,1086.9,527.5z"/>
<path class="st11" d="M1085.2,534c-0.7,0-1.4,0-2.2,0c-0.8,0.1-1.4-0.2-1.4-0.7s0.3-4,0.4-4.5s0.8,0.2,0.9,0.7s1,1.5,1.2,2.4
	c0.2,0.9,1.6,1.6,1.6,1.8S1085.2,534,1085.2,534z"/>
<path class="st13" d="M1079.2,525.9c0.4,0.3,0.8,0.6,1.2,0.8c0.6,0.2,0.8,0.2,0.7,0.6c-0.1,0.4-0.3,1.8-0.3,2.1s-0.3,0.3-0.3,0.1
	c-0.1-0.5-0.2-0.9-0.4-1.4c-0.2-0.4-0.5-1.3-0.9-1.6C1078.8,526.2,1078.7,525.7,1079.2,525.9z"/>
<path class="st11" d="M1064.2,526.4c-1.3-0.2-2.5-0.6-3.7-1c-1-0.5-2-0.8-3.1-0.9c-0.7,0.1-6.8-0.6-7,0.5l4.3,2.1
	C1054.7,527.1,1063.2,527.1,1064.2,526.4z"/>
<path class="st13" d="M1064.2,526.4c-1.3-0.2-2.5-0.6-3.7-1c-1-0.5-2-0.8-3.1-0.9c-0.7,0.1-6.8-0.6-7,0.5l4.3,2.1
	C1054.7,527.1,1063.2,527.1,1064.2,526.4z"/>
<path class="st11" d="M1054.8,526.8c0,0-4.1-2.5-4.5-1.9c-0.4,0.6-0.4,3.7-0.7,4.8c-0.4,0.8,0,1.8,0.8,2.2c0.1,0,0.1,0.1,0.2,0.1
	c1.1,0.6,4.1,2.5,4.1,2.5L1054.8,526.8z"/>
<path class="st13" d="M1054.8,526.8c0,0-4.1-2.5-4.5-1.9c-0.4,0.6-0.4,3.7-0.7,4.8c-0.4,0.8,0,1.8,0.8,2.2c0.1,0,0.1,0.1,0.2,0.1
	c1.1,0.6,4.1,2.5,4.1,2.5L1054.8,526.8z"/>
<path class="st11" d="M1064.2,526.4c0,0-3.2,0.4-5.5,0.4c-2.3,0-3.8-0.5-4.1,0.2c-0.3,0.7-0.3,5.2-0.6,6.3c-0.3,1.1,0.7,1.5,3.1,1.2
	s6.4,0.2,6.3-0.9C1063.3,532.5,1065,526.3,1064.2,526.4z"/>
<path class="st12" d="M1064.2,526.4c0,0-3.2,0.4-5.5,0.4c-2.3,0-3.8-0.5-4.1,0.2c-0.3,0.7-0.3,5.2-0.6,6.3c-0.3,1.1,0.7,1.5,3.1,1.2
	s6.4,0.2,6.3-0.9C1063.3,532.5,1065,526.3,1064.2,526.4z"/>
<path class="st11" d="M1059.9,527.5c0,0,3.1-0.4,3.8-0.4c0.7,0-0.1,2.4-0.2,3.1c0,0-0.3,0.1-0.3-0.2s0.2-1.6-0.2-1.8
	s-1.1-0.6-1.7-0.5C1060.7,527.8,1059.6,527.7,1059.9,527.5z"/>
<path class="st11" d="M1058.2,534c-0.7,0-1.4,0-2.2,0c-0.8,0.1-1.4-0.2-1.4-0.7s0.3-4,0.4-4.5s0.8,0.2,0.9,0.7s1,1.5,1.2,2.4
	c0.2,0.9,1.6,1.6,1.6,1.8S1058.2,534,1058.2,534z"/>
<path class="st13" d="M1052.2,525.9c0.4,0.3,0.8,0.6,1.2,0.8c0.6,0.2,0.8,0.2,0.7,0.6c-0.1,0.4-0.3,1.8-0.3,2.1s-0.3,0.3-0.3,0.1
	c-0.1-0.5-0.2-0.9-0.4-1.4c-0.2-0.4-0.5-1.3-0.9-1.6C1051.8,526.2,1051.7,525.7,1052.2,525.9z"/>
<path class="st11" d="M1073.6,518.4c-1.1,0.6-2.3,1.1-3.6,1.5c-1.1,0.2-2.1,0.6-3,1.2c-0.5,0.5-5.7,3.7-5.2,4.7l4.7-1
	C1066.5,524.8,1073.3,519.5,1073.6,518.4z"/>
<path class="st13" d="M1073.6,518.4c-1.1,0.6-2.3,1.1-3.6,1.5c-1.1,0.2-2.1,0.6-3,1.2c-0.5,0.5-5.7,3.7-5.2,4.7l4.7-1
	C1066.5,524.8,1073.3,519.5,1073.6,518.4z"/>
<path class="st11" d="M1066.5,524.5c0,0-4.8,0.7-4.7,1.3c0.1,0.6,2,3.1,2.4,4.2c0.2,0.9,1.1,1.5,2,1.3c0.1,0,0.1,0,0.2-0.1
	c1.2-0.2,4.7-0.6,4.7-0.6L1066.5,524.5z"/>
<path class="st13" d="M1066.5,524.5c0,0-4.8,0.7-4.7,1.3c0.1,0.6,2,3.1,2.4,4.2c0.2,0.9,1.1,1.5,2,1.3c0.1,0,0.1,0,0.2-0.1
	c1.2-0.2,4.7-0.6,4.7-0.6L1066.5,524.5z"/>
<path class="st11" d="M1073.6,518.4c0,0-2.3,2.3-4,3.7c-1.7,1.4-3.2,2-3,2.7c0.2,0.7,3,4.3,3.4,5.3s1.4,0.7,3.2-0.9
	c1.8-1.6,5.1-3.8,4.4-4.6C1076.9,523.8,1074.2,517.7,1073.6,518.4z"/>
<path class="st12" d="M1073.6,518.4c0,0-2.3,2.3-4,3.7c-1.7,1.4-3.2,2-3,2.7c0.2,0.7,3,4.3,3.4,5.3s1.4,0.7,3.2-0.9
	c1.8-1.6,5.1-3.8,4.4-4.6C1076.9,523.8,1074.2,517.7,1073.6,518.4z"/>
<path class="st11" d="M1070.8,521.9c0,0,2.2-2.2,2.7-2.7s1.4,1.9,1.8,2.5c0,0-0.1,0.3-0.4,0c-0.3-0.3-0.8-1.4-1.2-1.3
	c-0.4,0.1-1.2,0.2-1.6,0.6C1071.7,521.4,1070.8,522.2,1070.8,521.9z"/>
<path class="st11" d="M1073.6,528c-0.6,0.4-1.1,0.9-1.7,1.4c-0.6,0.6-1.3,0.7-1.5,0.3c-0.2-0.4-2.2-3.4-2.5-3.8
	c-0.3-0.4,0.8-0.4,1.2,0c0.4,0.4,1.7,0.6,2.5,1.2c0.8,0.6,2.2,0.3,2.4,0.5C1074.2,527.8,1073.6,528,1073.6,528z"/>
<path class="st13" d="M1063.9,525.4c0.5,0,1,0,1.4-0.2c0.6-0.2,0.7-0.3,0.9,0c0.2,0.3,0.9,1.6,1,1.8c0.1,0.2,0,0.4-0.2,0.3
	c-0.4-0.3-0.7-0.6-1.2-0.8c-0.4-0.2-1.2-0.7-1.7-0.7S1063.4,525.5,1063.9,525.4z"/>
<path class="st13" d="M1039.4,527.4l7.2,10.5l0.1,0.1h8.3c-2.5-31.7,2.9-66.6,7.2-77c5.1-12.3,15.9-12.3,15.9-12.3h-27.5v10.7
	L1039.4,527.4z"/>
<path class="st11" d="M1128.6,537.5c-6.9,1.2-14.1,1.2-21,0c-0.2,0-0.5-0.1-0.7-0.2c-0.2-0.1-0.3-0.4-0.3-0.6v-41.1h22.7v41.1
	C1129.4,537.2,1129,537.5,1128.6,537.5z"/>
<path class="st10" d="M1109.3,535.8c5.7,1.2,11.5,1.2,17.2,0c0.2,0,0.5-0.1,0.7-0.2c0.2-0.1,0.3-0.4,0.3-0.6v-31
	c-2.5,0.6-5.2,0.5-7.6-0.3l-1.6-0.5c-2.8-0.9-5.8-0.7-8.5,0.4l-1,0.4v31C1108.7,535.4,1108.9,535.7,1109.3,535.8z"/>
<path class="st6" d="M1109.3,535.8c5.7,1.2,11.5,1.2,17.2,0c0.2,0,0.5-0.1,0.7-0.2c0.2-0.1,0.3-0.4,0.3-0.6v-31
	c-2.5,0.6-5.2,0.5-7.6-0.3l-1.6-0.5c-2.8-0.9-5.8-0.7-8.5,0.4l-1,0.4v31C1108.7,535.4,1108.9,535.7,1109.3,535.8z"/>
<path class="st11" d="M1118,496.8c6.3,0,11.4-0.5,11.4-1.1c0-0.6-5.1-1.1-11.4-1.1s-11.4,0.5-11.4,1.1
	C1106.6,496.3,1111.7,496.8,1118,496.8z"/>
<path class="st13" d="M1118,496.8c6.3,0,11.4-0.5,11.4-1.1c0-0.6-5.1-1.1-11.4-1.1s-11.4,0.5-11.4,1.1
	C1106.6,496.3,1111.7,496.8,1118,496.8z"/>
<path class="st10" d="M894.7,345.7c-12-10.8-50.5-22.9-50.5-22.9l-36.2,3.1v0.1l-21.6,0.4c0,0-35.1,9.5-49.5,19.8l14,65.1
	c0,0-0.6,53.8,1.5,91.6h60.8l61.5-0.5c-0.8-25.5,2-91.6,2-91.6L894.7,345.7z"/>
<path class="st11" d="M789.8,322.8l49.8,1v24.5c0,0-18.7,1.9-21.9,23.2c0,0-4.8-18.4-22.8-16.8c0,0-6.2-16.5-6.2-17
	S789.8,322.8,789.8,322.8z"/>
<path class="st10" d="M894.7,345.7c0,0,6.6,7.5,9.2,16.7l26.1,76c0.8,3.2,0.8,6.5-0.1,9.7c-2.8,8.9-15,26.9-24.4,39.8L879.3,474
	l12.9-28.8l-15.4-35C876.6,410.2,880.4,366.6,894.7,345.7z"/>
<path class="st14" d="M837.8,323.7l-7.4-49.9l-39.6,3.2l1.1,50.9c0,0,5.5,16.5,25,14.9C824.4,342.3,836,337.2,837.8,323.7z"/>
<path class="st14" d="M834.8,257.8c0,0,8.1,53.3-21.3,55.4c-28.7,2.2-29.6-51.7-29.6-51.7l-0.8-15.4l37-6.5l9.3,4.8L834.8,257.8z"/>
<path class="st9" d="M834.6,308.7l-1.6-14.2c-2.7,9.4-7.9,16.2-17.5,17.8h0.1l-2.1,0.3c-7.7,0.6-14-3-18.9-10.5
	c-0.2-0.3-0.6-0.4-0.9-0.2c-0.3,0.2-0.4,0.6-0.2,0.9c5.1,8.1,11.9,11.8,20,11.2c1.7-0.1,3.4-0.5,5-1
	C823.8,313.5,830.6,312.7,834.6,308.7z"/>
<path d="M827.8,245.1c0,0,9.3-6.2,13.8,4.4c3.7,8.9-2.6,18.7-2.6,18.7l-5.4-0.6c-2.3-0.1-3.8-1.2-4-3.3L827.8,245.1z"/>
<path d="M834.5,238.6c0.8,10.1-7.9,12.8-11.4,13.1l-29,2.5c-2.4,0.2-4.1,2.3-4,4.6l0.5,9.2c0.1,1.3-0.8,2.4-2.1,2.5l-1.8,0.2l-2,2.5
	c-11.4-2.8-16.1-35.1,4.8-41.6c2.3-0.7,4.1-2.3,5.2-4.4c3-6.3,15.5-8,21.8-0.9c1.2,1.5,3.1,2.3,5,2.2
	C829.2,228.3,834.1,233,834.5,238.6z"/>
<path class="st14" d="M786.8,273.9c-0.3-2.6-2.6-4.5-5.3-4.3c-0.9,0.1-1.8,0.5-2.5,1.1l-0.1,0.1c-5,4.3-1.8,17.9,9.2,16.7
	L786.8,273.9z"/>
<path class="st14" d="M841.5,266.7l-0.1-0.1c-2.3-1.3-5.2-0.5-6.5,1.7c-0.5,0.8-0.7,1.7-0.6,2.6l0.6,13
	C846,283.5,847,270.3,841.5,266.7z"/>
<path d="M801.4,282.5c1.4,0,2.6-1.1,2.6-2.5c0-1.4-1.1-2.6-2.5-2.6s-2.6,1.1-2.6,2.5S800,282.5,801.4,282.5z"/>
<path class="st11" d="M801.8,280.2c0.3,0,0.6-0.2,0.6-0.6c0-0.3-0.3-0.6-0.6-0.6s-0.6,0.3-0.6,0.6S801.5,280.2,801.8,280.2z"/>
<path class="st5" d="M845.8,323.5c0,0,7.9,16.8,4.3,69.8h8.8c0,0,2.5-50-8.6-68.6L845.8,323.5z"/>
<path d="M821.1,281c1.4,0,2.6-1.1,2.6-2.5c0-1.4-1.1-2.6-2.5-2.6c-1.4,0-2.6,1.1-2.6,2.5C818.5,279.8,819.7,281,821.1,281z"/>
<path class="st11" d="M820.7,278.8c0.3,0,0.6-0.3,0.6-0.6s-0.2-0.6-0.6-0.6c-0.3,0-0.6,0.3-0.6,0.6
	C820.1,278.6,820.4,278.8,820.7,278.8z"/>
<path class="st7" d="M812.5,291l2.1-0.2c0.4-0.1,0.7-0.4,0.6-0.8c-0.1-0.3-0.4-0.6-0.7-0.6l-2.1,0.2c-0.9,0.1-1.6-0.5-1.7-1.4
	c-0.1-0.9,0.5-1.6,1.4-1.7c0.1,0,0.1,0,0.2,0c0.4-0.1,0.7-0.4,0.6-0.8c-0.1-0.4-0.4-0.6-0.7-0.6c-1.6,0.1-2.9,1.5-2.8,3.1
	c0,0.1,0,0.1,0,0.2c0,1.6,1.3,2.9,2.9,2.9C812.4,291,812.4,291,812.5,291z"/>
<path class="st7" d="M819.5,369.7c0,0,9.3-26.3,26.2-8.9l1.1,1.5l-1.2-39.5h-3.3l-6.6,26.9C835.8,349.7,823.6,349.2,819.5,369.7z"/>
<path class="st11" d="M806.8,295.9l0.2-0.1c3.6-0.6,7.2-0.6,11.3-1c0.3,0,0.5,0.3,0.5,0.6v0.1c-0.8,3.5-3.1,4.4-5.5,4.8
	c-2.6,0.4-5.8-0.6-6.7-3.5v-0.1C806.3,296.4,806.5,295.9,806.8,295.9z"/>
<path class="st7" d="M784,281c-0.4,0-0.7-0.3-0.8-0.7l-0.2-1.6c0-1.3-0.5-2.5-1.4-3.4c-0.3-0.3-0.7-0.4-1.2-0.4
	c-0.4,0.1-0.8-0.2-0.9-0.6c-0.1-0.4,0.2-0.8,0.6-0.9c0.8-0.1,1.7,0.1,2.4,0.6c1.1,0.8,1.8,2.4,2,4.4l0.2,1.6
	C784.7,280.4,784.4,280.8,784,281z"/>
<path class="st7" d="M784.5,326.9l4.4,39.4c0,0,12.8-20.7,27.7,4c0,0-6.1-17.4-20-14.9l-10.2-29.1L784.5,326.9z"/>
<path class="st5" d="M874.6,477.7c-11.8-26.3-9.5-84.6-9.5-84.6h-99.7c0,0-1.3,58.3-13.1,84.6c0,0-1,66.3-0.5,82.6h126.9
	C879.1,544,874.6,477.7,874.6,477.7z"/>
<path class="st6" d="M787.6,393.1h-9.3v167.3h9.3V393.1z"/>
<path class="st6" d="M762.6,560.3h9.3V393.1h-6.5c0,0-0.4,17.8-2.7,38.1v129.1H762.6z"/>
<path class="st6" d="M803.3,393.1H794v167.3h9.3V393.1z"/>
<path class="st6" d="M818.9,393.1h-9.3v167.3h9.3V393.1z"/>
<path class="st6" d="M834.6,393.1h-9.3v167.3h9.3V393.1z"/>
<path class="st6" d="M850.2,393.1h-9.3v167.3h9.3V393.1z"/>
<path class="st6" d="M865.9,393.1h-9.3v167.3h9.3V393.1z"/>
<path class="st6" d="M872.3,471.6v88.7h6.4c0.5-16.3-4.1-82.6-4.1-82.6C873.7,475.7,872.9,473.7,872.3,471.6z"/>
<path class="st7" d="M838.1,276.9c0.4,0,0.7-0.4,0.7-0.8v-1.6c-0.1-1.7,0.2-2.9,0.9-3.5c0.3-0.4,0.7-0.6,1.2-0.6
	c0.4,0,0.7-0.3,0.8-0.7c0-0.4-0.3-0.7-0.7-0.8c-0.8,0-1.6,0.4-2.2,1c-1,1-1.4,2.6-1.3,4.7v1.6C837.3,276.7,837.6,276.9,838.1,276.9z
	"/>
<path d="M807,270.2c-0.3,0.6-2.9-0.2-6,0.1c-3.1,0.3-5.6,1.4-6,0.9c-0.2-0.2,0.2-0.8,1.3-1.3c1.4-0.9,2.9-1.4,4.5-1.7
	c1.6,0,3.2,0.3,4.7,0.9C806.5,269.6,807.1,270,807,270.2z"/>
<path class="st7" d="M874.6,477.7l-33,43c0,0-3.7,12.5-3.5,15.5l36.8-54.8L874.6,477.7z"/>
<path class="st0" d="M844,540.7l-0.2,16.9l34.4-0.8c5.7-0.3,11.5-6.2,9.6-11.2c-0.6-1.7-2.8-2.9-5.1-3.8c-3-1.2-6.3-1.8-9.6-1.7
	L844,540.7z"/>
<path class="st7" d="M887.5,550.6c-2.3,4-12.2,3.8-12.2,3.8l-27.9,0.6l-3.5,2.6l34.4-0.8C882.2,556.5,885.7,554.1,887.5,550.6z"/>
<path class="st0" d="M840.2,543.3c-1.8,3.8-1.7,8.3,0.3,12c2,3.2,5.1,3.2,6.9-0.2c1.8-3.8,1.7-8.3-0.3-12
	C845.1,539.8,842,539.9,840.2,543.3z"/>
<path class="st4" d="M840.2,543.3c-1.8,3.8-1.7,8.3,0.3,12c2,3.2,5.1,3.2,6.9-0.2c1.8-3.8,1.7-8.3-0.3-12
	C845.1,539.8,842,539.9,840.2,543.3z"/>
<path class="st6" d="M840.6,544c-1.6,3.4-1.5,7.3,0.3,10.6c1.8,2.9,4.5,2.8,6.1-0.2c1.6-3.4,1.5-7.3-0.3-10.6
	C844.9,540.9,842.2,541,840.6,544z"/>
<g class="st15">
	<path class="st7" d="M844.3,547.9c0-0.8,0.2-1.6,0.6-2.3c0.5-0.6,1.3,1.1,0.6,1.9C844.8,548.3,844.3,547.9,844.3,547.9z"/>
	<path class="st7" d="M842.9,550.4c-0.6,0.1-1.1,0.5-1.3,1.1c-0.3,1,0.7,2.1,1.1,0.9C843,551.8,843.1,551.1,842.9,550.4z"/>
	<path class="st7" d="M844.6,549c0,0,0.7-1.1,1.4-0.8c0.7,0.3,0.4,2.3-0.4,2C845.1,550,844.8,549.5,844.6,549z"/>
	<path class="st7" d="M844.5,550.4c0.6,0.1,1.1,0.5,1.3,1.1c0.3,1-0.6,2.2-1.1,0.9C844.5,551.8,844.4,551.1,844.5,550.4z"/>
	<path class="st7" d="M843.7,550.9c0.4,0.7,0.6,1.5,0.6,2.3c-0.1,1.1-1.3,0.9-1.2-0.5C843.2,551.3,843.7,550.9,843.7,550.9z"/>
	<path class="st7" d="M843.7,547.5c0.3-0.8,0.4-1.6,0.3-2.4c-0.2-1.1-1.4-0.6-1.1,0.8C843.2,547.3,843.7,547.5,843.7,547.5z"/>
	<path class="st7" d="M842.9,547.9c0,0-0.1-1.7-0.7-2.2c-0.6-0.5-1.2,1.2-0.5,1.9S842.9,547.9,842.9,547.9z"/>
	<path class="st7" d="M842.6,549.3c0,0-0.7-1.2-1.4-1s-0.4,2.3,0.4,2C842.1,550.1,842.5,549.7,842.6,549.3z"/>
</g>
<g class="st15">
	<path class="st6" d="M847,543.1c3.2-0.3,6.3-0.6,9.5-0.8c3.2-0.2,6.3-0.3,9.5-0.5c3.2-0.2,6.3-0.1,9.5,0c1.6,0,3.2,0.1,4.8,0.3
		c0.8,0.1,1.6,0.2,2.4,0.3c0.8,0.1,1.5,0.4,2.2,0.8c-0.7-0.4-1.5-0.6-2.2-0.7c-0.8-0.1-1.6-0.2-2.4-0.2c-1.6-0.1-3.2-0.1-4.7-0.1
		c-3.2,0-6.3,0-9.5,0.2c-3.2,0.2-6.3,0.2-9.5,0.3L847,543.1z"/>
</g>
<g class="st15">
	<path class="st6" d="M847.4,555c3.3,0,6.7-0.1,10-0.2c3.3-0.1,6.7-0.2,10-0.3c3.3-0.1,6.6-0.3,9.9-0.7c1.7-0.2,3.3-0.4,4.9-0.7
		c0.8-0.1,1.6-0.4,2.4-0.6c0.8-0.2,1.5-0.6,2.1-1.2c-0.6,0.6-1.3,1.1-2.1,1.3c-0.8,0.3-1.6,0.5-2.4,0.7c-1.6,0.4-3.3,0.6-4.9,0.8
		c-3.3,0.4-6.6,0.6-10,0.8c-3.4,0.2-6.7,0.2-10,0.2S850.7,555.2,847.4,555z"/>
</g>
<g class="st15">
	<path class="st6" d="M848.4,552.1l10-0.3c3.3-0.1,6.7-0.2,10-0.5c3.3-0.3,6.7-0.4,10-0.8c1.7-0.2,3.3-0.4,4.9-0.7
		c0.8-0.1,1.6-0.3,2.4-0.6c0.8-0.2,1.6-0.6,2.2-1.1c-0.6,0.6-1.4,1-2.2,1.2c-0.8,0.3-1.6,0.5-2.4,0.7c-1.6,0.4-3.3,0.6-4.9,0.9
		c-3.3,0.4-6.6,0.7-10,0.9c-3.4,0.2-6.7,0.3-10,0.3C855.1,552.1,851.7,552.2,848.4,552.1z"/>
</g>
<g class="st15">
	<path class="st6" d="M848.5,547.1c3.2-0.3,6.4-0.6,9.7-0.9c3.2-0.2,6.5-0.4,9.7-0.6c3.2-0.2,6.5-0.3,9.7-0.3c1.6,0,3.2,0,4.9,0
		c0.8,0,1.6,0.1,2.4,0.2l1.2,0.1c0.4,0.1,0.8,0.2,1.2,0.3c-0.4-0.1-0.8-0.2-1.2-0.2l-1.2-0.1c-0.8,0-1.6,0-2.4,0
		c-1.6,0-3.2,0-4.8,0.1c-3.2,0.1-6.5,0.2-9.7,0.4L848.5,547.1z"/>
</g>
<path d="M814.6,270.1c0.3,0.5,2.9-0.5,6-0.5c3.1,0,5.7,0.9,6,0.3c0.2-0.3-0.3-0.7-1.4-1.2c-1.4-0.7-3-1.2-4.5-1.2
	c-1.6,0.1-3.2,0.6-4.6,1.4C815,269.3,814.5,269.8,814.6,270.1z"/>
<path class="st7" d="M802.7,486.1c0,0-2-5.5-3.5-7.6l-43.7-36.6l-0.6-32.3l-1.5-20.1h-1.6l-0.9,21.8l-1.3,32.7L802.7,486.1z"/>
<path class="st10" d="M828.8,354.2c10.2-4.7,16,3.5,16,3.5l-0.5-34.9l-4.6-7.7c-2.1-3.6-3.6-2.6-3.6-2.6l1.7,11.2
	c0,0,0.2,17.7-10.6,28.5c0,0-7,6.9-8.9,22C818.3,374.1,822.1,357.3,828.8,354.2z"/>
<path class="st7" d="M758.3,560.3v-72.2l-6.6-5.1l0.6,77.3H758.3z"/>
<path class="st10" d="M805.2,357.3c-10.8-3.1-15.2,5.8-15.2,5.8l-4.2-36.1l2.9-8.8c1.5-3.9,3.1-3.1,3.1-3.1l-0.1,13.3
	c0,0,2.2,16.1,13.3,25.4c0.6,0.5,1.3,1,2,1.5c1.8,1.3,8.1,6.5,11.7,19C818.5,374.4,812.2,359.3,805.2,357.3z"/>
<path class="st14" d="M877.6,476.2l-19.7,26.7l-15.2,20.9c0,0-4.5,10.9-5,15.1c0,0,1.8,11.2,4,17.2c0,0,2.8,2.8,5.1-0.6l0.3,2.1
	c0.1,0.7,0.4,1.4,0.9,2c0.9,1.1,2,2,3.9,0.6c1-0.8,1.6-2,1.5-3.3l-0.4-16l2.4-6.5l0.5,0.4l-0.2,9.2l1.1,13.3c0.1,1.6,1.4,2.7,3,2.6
	c0.3,0,0.7-0.1,1-0.3h0.1c0.9-0.5,1.4-1.4,1.5-2.3l0.1-1.8c0,0,1.8,1.9,3.5-1.4l1.9-12.9l4.5-8.5c0,0,5-5.8,3.6-18.5l29.3-29.3
	C905,484.6,891.8,478.2,877.6,476.2z"/>
<path class="st16" d="M848.8,527.8c0,0-4,9.8-3.9,10.8c0.3,5.7,1,11.3,1.9,16.9"/>
<path class="st16" d="M862.3,555.2l-1-12.8l1.9-10.6"/>
<path class="st10" d="M876.2,475.9c0,0,16.8,7.9,24.5,17.7c0,0,9.3-7.9,13-14c0,0-13.6-14.7-29.1-18.9L876.2,475.9z"/>
<path class="st7" d="M876.2,475.9c0,0,16.8,7.9,24.5,17.7c0,0,6-4.2,13-14c0,0-13.6-14.7-29.1-18.9L876.2,475.9z"/>
<path class="st10" d="M736.9,346.2c0,0-8.5,6-13.6,29.6L713,442.7c0,0,0,0.2-0.1,0.5c-0.9,6.6,1.6,13.2,6.6,17.5
	c6.3,5.4,19.2,15.4,39,26.5l7.7-29.8l-1.5-1.7c-4.1-4.7-8.6-9.1-13.4-13.1l-0.4-31.3L736.9,346.2z"/>
<path class="st7" d="M759.3,483l-32.4-21.9c-2.7-1.8-5.1-4-7.2-6.5c-6.2-7.6-6.2-14.3-6-16.7l-0.7,4.8c0,0,0,0.2-0.1,0.5
	c-1,6.6,1.5,13.2,6.6,17.5c6.3,5.4,19.2,15.4,39,26.5l0.8-3V483z"/>
<path class="st10" d="M759,488.8c0,0,5.7-15.4,13.9-26.8c0,0-6.7-6.7-11.3-10.3c-8.4,7.5-14.1,17.7-16,28.8
	C749.8,483.7,754.3,486.5,759,488.8z"/>
<path class="st7" d="M759,488.8c0,0,5.7-15.4,13.9-26.8c0,0-5.2-5.2-11.3-10.3c-8.4,7.5-14.1,17.7-16,28.8
	C749.9,483.5,754.4,486.3,759,488.8z"/>
<path class="st7" d="M750.8,442.6c-2.5-0.3-5,0.2-7.2,1.4c0,0,2.3-2.9,7.6-4.3L750.8,442.6z"/>
<path class="st5" d="M784.5,326.9c0,0-7.9,13.2-4.3,66.2h-8.7c0,0-2.6-46.4,8.6-65L784.5,326.9z"/>
<path class="st14" d="M773,462.5l23.5,16.9c2.5,1.5,4.5,3.6,5.8,6.2l11.5,18.5c0.4,0.7,0.5,1.5,0.4,2.3l-1.7,13.7l-4.1,10.1
	c-0.3,0.8-0.9,1.3-1.7,1.6c-1.8,0.6-4.1,1.7-6.2-1.9c-0.5,1.2-1.7,2-3,2.1c-0.7,0-1.3-0.1-2-0.4c-1.1-0.5-2.7-1.5-2.7-3.3v-2.6
	c0,0-5.7,0.5-5.7-5.2c0,0-4.6,1-6.2-4.6l-1-7.7c0,0,1.5-8.2,2.6-11.8l-22.4-10C760.1,486.3,767,470.3,773,462.5z"/>
<path class="st17" d="M803,517.4c-1.3,4-2.2,8.1-2.5,12.3"/>
<path class="st17" d="M794.3,515.8c0,0-1.5,6.7-1.5,9.8"/>
<path class="st17" d="M787.3,510.3l-0.2,10.2"/>
<path class="st9" d="M812.6,519.1c-4.4,0.8-6.7-1.5-8.1-3.2c-0.6-0.6-1.4-1-2.3-1c-2.2,0-4.3-0.7-6-2c-0.5-0.4-1.2-0.7-1.9-0.6
	c-2.1,0-4.1-0.8-5.6-2.3c-0.6-0.6-1.4-0.9-2.2-0.8c-2.4,0-4.7-0.8-6.6-2.1l1,8.8c1.5,5.7,6.2,4.6,6.2,4.6c0,5.7,5.7,5.2,5.7,5.2v2.6
	c0,1.8,1.7,2.8,2.7,3.3c0.6,0.3,1.3,0.4,2,0.4c1.3-0.1,2.5-0.9,3-2.1c2.2,3.6,4.4,2.6,6.2,1.9c0.8-0.3,1.4-0.9,1.7-1.6l3.9-9.7
	L812.6,519.1z"/>
<path class="st7" d="M892.1,445.3c2.4-0.7,4.8-1.2,7.3-1.3c0,0-1.5-2.1-7.9,0L892.1,445.3z"/>
<path class="st7" d="M876.6,410.3l-3.3-13.1h0.8l22.9,47l-8,17.8l-0.8-0.4L880,478l-3.6-2.1l7.9-15.3l0.8,0.1l7-15.4L876.6,410.3z"
	/>
<path class="st7" d="M746.8,475.3l13.9,9.2l-1.7,4.3c0,0-10.8-5.7-13.4-8.2L746.8,475.3z"/>
<path class="st9" d="M782.5,496.3l-21.8-11.8l-0.6,1.7L782.5,496.3z"/>
<path class="st9" d="M842.6,523.8c0,0-4.5,10.9-5,15.1c0,0,1.8,11.2,4,17.2c0.3,0.3,0.7,0.5,1.1,0.7l-3.9-17.7l5.6-15.5l16.4-20.2
	l19.5-25.8l-2.7-1.3L857.9,503L842.6,523.8z"/>
<g>
	<path class="st0" d="M836.5,283.9l-2.8,6.5l0.1,1c0,0-0.8,18.8-20.8,21.2c0,0-20.5,2.3-25-19.1V293l-3-5.6l1.1,0.1l2.1,3.8l0.5-5.8
		l-2.1-10.8l0.1-2.4l3,12.2c3.9,1.3,20.1,5.8,40.5-0.5l5.5-14.4l0.1,2.2l-0.2,0.4l-4,11.3l1.1-0.4l1,5.2l1.9-4.4H836.5z"/>
	<path class="st6" d="M788.8,296.7c3.2,2.8,20.6,15.9,43.9,0.2c0.2-0.8,0.5-1.6,0.6-2.2c0.2-2.1,0.8-3.2,0.4-6.2l-0.5-1.1l-0.5-4.1
		l-1.1,0.4l0.1-0.4l-1.6,0.9c-20.4,6.3-36.6,1.8-40.5,0.5l-1,1l-0.3,3.8v5.5C788.5,295.4,788.7,296.1,788.8,296.7z"/>
	<path class="st6" d="M833.3,287.3l-0.5-4.1l-1.1,0.4l-1.5,0.5c-20.4,6.3-36.6,1.8-40.5,0.5l-1,1l-0.3,3.9
		C788.3,289.4,807.6,305.6,833.3,287.3z"/>
</g>
<path d="M788.2,275.6c0,0.7-0.5,1.3-1.2,1.4c-0.7,0.1-1.3-0.3-1.5-1l-1.3-8.8l3.6,0.1L788.2,275.6z"/>
<path d="M836.5,272c0,0.7-0.5,1.3-1.2,1.4c-0.7,0.1-1.3-0.3-1.5-1l-1.3-8.7l3.6,0.1L836.5,272z"/>
<path class="st11" d="M818.9,513.7l23.8,27.1c0,0,10.7,12.7,11.7,18.9c0,0-9.7-1.2-20.2-10.7l-22-21.9L818.9,513.7z"/>
<path class="st9" d="M818.9,513.7l23.8,27.1c0,0,10.7,12.7,11.7,18.9c0,0-9.7-1.2-20.2-10.7l-22-21.9L818.9,513.7z"/>
<path d="M814.8,508.3l4.2,5.2c0.2,0.2,0.2,0.5,0.1,0.7l-3.9,7.4c-0.2,0.3-0.6,0.4-0.8,0.2c-0.8-0.5-1.5-1.2-2-2.1
	c-0.1-0.2-0.1-0.4,0-0.5l1.5-10.8c0.1-0.3,0.5-0.4,0.8-0.3C814.7,508.2,814.8,508.3,814.8,508.3z"/>
<path class="st11" d="M854.2,558.6c-9.3-1.5-20.2-11.8-20.2-11.8l-21-21.4l-0.8,1.6l22,21.9c10.5,9.5,20.2,10.7,20.2,10.7
	C854.3,559.3,854.3,559,854.2,558.6z"/>
<path class="st0" d="M826.4,553.4v2.3c0,0.1,0,0.1,0,0.2c-0.3,1.2-1.1,2.2-2.3,2.7c-3.5,1.6-7.5,1.6-11,0c-1.6-0.8-2.4-2-2.3-3v-2.2
	h1.5c0.2-0.2,0.5-0.3,0.8-0.5c3.5-1.6,7.5-1.6,11,0c0.3,0.1,0.5,0.3,0.8,0.5H826.4z"/>
<path class="st7" d="M823.5,555.7c0,0.4,0.1,0.8,0.1,1.2c0,0.7,0,1.3-0.1,2c0.2-0.1,0.4-0.2,0.7-0.3c1.4-0.7,2.2-1.6,2.3-2.5
	c0-0.1,0-0.1,0-0.2v-2.3H826C825.3,554.4,824.4,555.1,823.5,555.7z"/>
<path class="st0" d="M824.2,550.6c3,1.8,3,4.6,0,6.3c-3.5,1.8-7.5,1.8-11,0c-3-1.8-3-4.6,0-6.3C816.6,548.8,820.7,548.8,824.2,550.6
	z"/>
<path class="st6" d="M824.2,550.6c3,1.8,3,4.6,0,6.3c-3.5,1.8-7.5,1.8-11,0c-3-1.8-3-4.6,0-6.3C816.6,548.8,820.7,548.8,824.2,550.6
	z"/>
<path class="st6" d="M823.6,550.9c2.7,1.6,2.7,4.1,0,5.7c-3.1,1.6-6.7,1.6-9.8,0c-2.7-1.6-2.7-4.1,0-5.7
	C816.9,549.4,820.5,549.4,823.6,550.9z"/>
<path class="st7" d="M817.7,553.1c-0.1-0.6-0.5-1.1-1-1.2c-0.9-0.3-2,0.6-0.9,1C816.4,553.1,817.1,553.2,817.7,553.1z"/>
<path class="st7" d="M820.1,554.5c0.8,0,1.5,0.2,2.2,0.6c0.5,0.5-1.1,1.2-1.8,0.5S820.1,554.5,820.1,554.5z"/>
<path class="st7" d="M817.2,553.7c-0.7-0.3-1.5-0.5-2.3-0.4c-1,0.2-0.6,1.3,0.7,1.1C816.9,554.2,817.2,553.7,817.2,553.7z"/>
<path class="st7" d="M817.6,554.5c0,0-1.6,0.1-2.2,0.6c-0.6,0.5,1.1,1.2,1.8,0.5S817.6,554.5,817.6,554.5z"/>
<path class="st7" d="M818.9,554.7c0,0-1.2,0.7-0.9,1.3c0.3,0.6,2.2,0.5,1.9-0.3C819.8,555.2,819.4,554.8,818.9,554.7z"/>
<path class="st7" d="M818.8,552.9c0,0-1-0.7-0.7-1.3c0.3-0.6,2.2-0.3,1.8,0.4C819.7,552.4,819.2,552.7,818.8,552.9z"/>
<path class="st7" d="M820.1,553c0.1-0.6,0.5-1.1,1.1-1.2c0.9-0.3,2,0.6,0.9,1C821.4,553.1,820.7,553.1,820.1,553z"/>
<path class="st7" d="M820.5,553.8c0.7-0.4,1.4-0.6,2.2-0.5c1.1,0.1,0.8,1.2-0.5,1.1C820.9,554.3,820.5,553.8,820.5,553.8z"/>
<path class="st0" d="M826.4,550v2.5c-0.3,1.2-1.1,2.2-2.3,2.7c-3.5,1.6-7.5,1.6-11,0c-1.6-0.8-2.4-2-2.3-3V550h1.5
	c0.2-0.2,0.5-0.3,0.8-0.5c3.5-1.6,7.5-1.6,11,0c0.3,0.1,0.5,0.3,0.8,0.5H826.4z"/>
<path class="st7" d="M823.5,552.3c0.1,0.4,0.1,0.8,0.1,1.2c0,0.7,0,1.3-0.1,2l0.6-0.3c1.4-0.7,2.2-1.6,2.3-2.5v-2.4H826
	C825.3,551,824.4,551.7,823.5,552.3z"/>
<path class="st0" d="M824.2,547.2c3,1.8,3,4.6,0,6.3c-3.5,1.8-7.5,1.8-11,0c-3-1.8-3-4.6,0-6.3C816.6,545.5,820.7,545.5,824.2,547.2
	z"/>
<path class="st6" d="M824.2,547.2c3,1.8,3,4.6,0,6.3c-3.5,1.8-7.5,1.8-11,0c-3-1.8-3-4.6,0-6.3C816.6,545.5,820.7,545.5,824.2,547.2
	z"/>
<path class="st6" d="M823.6,547.6c2.7,1.6,2.7,4.1,0,5.7c-3.1,1.6-6.8,1.6-9.8,0c-2.7-1.6-2.7-4.1,0-5.7
	C816.8,546,820.5,546,823.6,547.6z"/>
<path class="st7" d="M817.7,549.7c-0.1-0.6-0.5-1.1-1-1.2c-0.9-0.3-2,0.6-0.9,1C816.4,549.7,817.1,549.8,817.7,549.7z"/>
<path class="st7" d="M820.1,551.1c0.8,0,1.5,0.2,2.2,0.6c0.5,0.5-1.1,1.2-1.8,0.5S820.1,551.1,820.1,551.1z"/>
<path class="st7" d="M817.2,550.3c-0.7-0.3-1.5-0.5-2.3-0.4c-1,0.2-0.6,1.3,0.7,1.1C816.9,550.8,817.2,550.3,817.2,550.3z"/>
<path class="st7" d="M817.5,551.1c0,0-1.6,0.1-2.1,0.6s1.1,1.2,1.8,0.5S817.5,551.1,817.5,551.1z"/>
<path class="st7" d="M818.9,551.4c0,0-1.2,0.7-1,1.3c0.2,0.6,2.2,0.5,1.9-0.3C819.7,551.9,819.4,551.5,818.9,551.4z"/>
<path class="st7" d="M818.7,549.5c0,0-1-0.7-0.7-1.3c0.3-0.6,2.2-0.3,1.9,0.4C819.7,549,819.2,549.4,818.7,549.5z"/>
<path class="st7" d="M820,549.7c0.1-0.6,0.5-1.1,1.1-1.2c0.9-0.3,2,0.6,0.9,1C821.4,549.7,820.7,549.8,820,549.7z"/>
<path class="st7" d="M820.5,550.5c0.7-0.4,1.4-0.6,2.2-0.5c1.1,0.1,0.8,1.2-0.5,1.1S820.5,550.5,820.5,550.5z"/>
<path class="st0" d="M827.8,546.4v2.4c0,0.1,0,0.1,0,0.2c-0.2,1.2-1.1,2.2-2.3,2.7c-3.5,1.6-7.5,1.6-11,0c-1.6-0.8-2.4-2-2.3-3.1
	v-2.1h1.5c0.2-0.2,0.5-0.3,0.8-0.5c3.5-1.6,7.5-1.6,11,0c0.3,0.1,0.5,0.3,0.8,0.5L827.8,546.4z"/>
<path class="st7" d="M824.9,548.8c0.1,0.4,0.1,0.8,0.1,1.2c0,0.7,0,1.3-0.1,2l0.7-0.3c1.4-0.7,2.2-1.6,2.3-2.5v-2.5h-0.4
	C826.6,547.4,825.8,548.1,824.9,548.8z"/>
<path class="st0" d="M825.5,543.7c3,1.8,3,4.6,0,6.3c-3.5,1.8-7.5,1.8-11,0c-3-1.8-3-4.6,0-6.3C818,541.9,822.1,541.9,825.5,543.7z"
	/>
<path class="st6" d="M825.5,543.7c3,1.8,3,4.6,0,6.3c-3.5,1.8-7.5,1.8-11,0c-3-1.8-3-4.6,0-6.3C818,541.9,822.1,541.9,825.5,543.7z"
	/>
<path class="st6" d="M825,544c2.7,1.6,2.7,4.1,0,5.7c-3.1,1.6-6.8,1.6-9.8,0c-2.7-1.6-2.7-4.1,0-5.7
	C818.2,542.4,821.9,542.4,825,544z"/>
<path class="st7" d="M819.1,546.2c-0.1-0.6-0.5-1.1-1-1.2c-0.9-0.3-2,0.6-0.9,1C817.8,546.2,818.4,546.2,819.1,546.2z"/>
<path class="st7" d="M821.5,547.5c0.8,0,1.5,0.2,2.2,0.6c0.5,0.5-1.1,1.2-1.8,0.5C821.2,547.9,821.5,547.5,821.5,547.5z"/>
<path class="st7" d="M818.6,546.8c-0.7-0.3-1.5-0.5-2.3-0.4c-1,0.2-0.6,1.3,0.7,1.1S818.6,546.8,818.6,546.8z"/>
<path class="st7" d="M819,547.5c-0.8,0-1.5,0.2-2.2,0.6c-0.5,0.5,1.1,1.2,1.8,0.5C819.3,547.9,819,547.5,819,547.5z"/>
<path class="st7" d="M820.3,547.8c0,0-1.2,0.7-0.9,1.3c0.3,0.6,2.2,0.5,1.9-0.3C821.1,548.3,820.8,547.9,820.3,547.8z"/>
<path class="st7" d="M820.1,545.9c0,0-1-0.7-0.7-1.3c0.3-0.6,2.2-0.3,1.9,0.4C821.1,545.5,820.6,545.8,820.1,545.9z"/>
<path class="st7" d="M821.5,546.1c0.1-0.6,0.5-1,1-1.2c1-0.3,2,0.7,0.9,1C822.7,546.2,822.1,546.2,821.5,546.1z"/>
<path class="st7" d="M821.9,546.9c0.7-0.4,1.4-0.6,2.2-0.5c1.1,0.1,0.8,1.2-0.5,1.1C822.3,547.4,821.9,546.9,821.9,546.9z"/>
<path class="st0" d="M837.8,553.2l2.4-0.2h0.2c1.2-0.4,2.1-1.3,2.4-2.5c1.2-3.6,0.8-7.6-1.2-10.9c-1-1.5-2.2-2.2-3.3-1.9l-2.1,0.2
	l0.2,1.5c-0.1,0.3-0.3,0.5-0.4,0.8c-1.2,3.6-0.8,7.6,1.2,10.9c0.2,0.2,0.3,0.5,0.5,0.7L837.8,553.2z"/>
<path class="st7" d="M839.8,550.1c0.4,0,0.8,0,1.2,0c0.7,0,1.3-0.1,2-0.3c-0.1,0.2-0.1,0.5-0.2,0.7c-0.5,1.5-1.4,2.3-2.3,2.5h-0.2
	l-2.3,0.2v-0.4C838.7,551.9,839.3,551.1,839.8,550.1z"/>
<path class="st0" d="M834.8,551.3c2,2.8,4.9,2.5,6.3-0.7c1.4-3.6,1-7.7-1.1-10.9c-2.1-2.8-4.9-2.5-6.3,0.7
	C832.3,544,832.7,548,834.8,551.3z"/>
<path class="st6" d="M834.8,551.3c2,2.8,4.9,2.5,6.3-0.7c1.4-3.6,1-7.7-1.1-10.9c-2.1-2.8-4.9-2.5-6.3,0.7
	C832.3,544,832.7,548,834.8,551.3z"/>
<path class="st6" d="M835.1,550.7c1.8,2.5,4.4,2.3,5.7-0.6c1.2-3.2,0.9-6.9-1-9.8c-1.8-2.5-4.4-2.3-5.7,0.6
	C832.8,544.1,833.2,547.8,835.1,550.7z"/>
<path class="st7" d="M836.6,544.6c-0.6,0-1.1-0.4-1.3-0.9c-0.4-0.9,0.4-2.1,0.9-1C836.5,543.3,836.6,543.9,836.6,544.6z"/>
<path class="st7" d="M838.2,546.8c0.1,0.8,0.4,1.5,0.8,2.1c0.6,0.5,1.1-1.2,0.3-1.8C838.5,546.5,838.2,546.8,838.2,546.8z"/>
<path class="st7" d="M837.2,544.1c-0.4-0.7-0.6-1.5-0.6-2.2c0.1-1,1.2-0.7,1.1,0.6C837.6,543.8,837.2,544.1,837.2,544.1z"/>
<path class="st7" d="M838,544.3c-0.1-0.8,0.1-1.5,0.4-2.2c0.5-0.6,1.3,1,0.7,1.8C838.5,544.7,838,544.3,838,544.3z"/>
<path class="st7" d="M838.4,545.6c0,0,0.5-1.2,1.2-1.1c0.7,0.1,0.7,2.1-0.1,2C838.9,546.4,838.5,546.1,838.4,545.6z"/>
<path class="st7" d="M836.5,545.7c0,0-0.8-0.9-1.4-0.5c-0.6,0.4-0.1,2.2,0.6,1.8C836.1,546.7,836.4,546.2,836.5,545.7z"/>
<path class="st7" d="M836.8,546.9c-0.6,0.2-1,0.6-1.1,1.2c-0.2,1,0.8,2,1.1,0.8C837,548.2,837,547.6,836.8,546.9z"/>
<path class="st7" d="M837.6,547.3c-0.3,0.7-0.4,1.5-0.3,2.2c0.2,1,1.3,0.7,1.1-0.6C838.2,547.6,837.6,547.3,837.6,547.3z"/>
<path class="st10" d="M910,556.7H784v4h126V556.7z"/>
<path class="st10" d="M966.8,550.3c-1.3,6.8-8.8,11.2-16.5,9.6c-7.7-1.6-13-8.3-11.6-15.2c1.4-6.9,8.8-11.2,16.5-9.6
	S968.2,543.5,966.8,550.3z"/>
<path class="st6" d="M966.8,550.3c-1.3,6.8-8.8,11.2-16.5,9.6c-7.7-1.6-13-8.3-11.6-15.2c1.4-6.9,8.8-11.2,16.5-9.6
	S968.2,543.5,966.8,550.3z"/>
<path class="st7" d="M967,547.4c-0.4,2.2-1.5,4.2-3.1,5.8c-2.5,2.4-5.6,3.9-9,4.4c-4.7,0.7-9.4-1-12.7-4.4c-1.5-1.4-2.7-3.1-3.5-5.1
	c-0.1-0.4-0.3-0.8-0.4-1.3c0,6.1,4.9,11.7,11.8,13.1c7.8,1.5,15.2-2.8,16.5-9.6C967,549.4,967.1,548.4,967,547.4z"/>
<path class="st5" d="M956.6,539c-0.7,1.2-2,1.9-3.3,2c-1.2,0-2.3,0.4-3.2,1.3c0.6-1.2,1.7-2.1,3-2.4c2.2-0.5,2.1-1.8,2.1-1.8
	c-1.1,0.4-2.4,0.3-3.4-0.3c-2-1-5.1,0.2-5.1,0.2c1.4-1,3.1-1.5,4.8-1.4c2.6,0.3,3.9,0.1,3.9,0c-0.5-0.7-0.5-1.6-0.1-2.4
	c0.5-0.9,0.8-2,0.9-3c0.4,1.1,0.5,2.2,0.3,3.3c-0.2,1.9,0.5,2.3,0.5,2.3c0.4-1.1,1.3-2,2.4-2.3c1-0.3,2-0.9,2.6-1.7
	c-0.2,1.2-0.9,2.2-1.9,2.9c-1.6,0.9-1.7,2-1.7,2c0.8,0.6,1.7,0.9,2.7,0.7c1.5-0.4,3.1-0.6,3.8,0.3c0,0-1.1-0.5-3.3,0.6
	c-0.6-1-1.8-1.4-2.9-0.9c-1,0.6-1.4,1.8-0.9,2.9c0.1,0.1,0.1,0.2,0.2,0.3c-0.4,0.8-0.1,1.7,0.7,2.1c0.1,0,0.2,0.1,0.3,0.1
	c-1.1,0.2-2.1-0.5-2.3-1.6c0-0.1,0-0.2,0-0.4C957,540.9,956.8,539.9,956.6,539z"/>
<g class="st15">
	<path class="st7" d="M955.6,537.4l-0.2,0.1l-0.3,0.1l-0.4,0.1h-0.2h-0.3c-0.2,0-0.4,0-0.6,0c-0.2,0-0.4,0-0.6-0.1
		c-0.1,0-0.2-0.1-0.3-0.1l-0.3-0.1c-0.2-0.1-0.3-0.1-0.5-0.2c-0.2,0-0.4-0.1-0.5-0.1h-0.5h-0.5c-0.6,0-1,0.1-1,0.1l0.2-0.1
		c0.2-0.1,0.5-0.1,0.7-0.2c0.2,0,0.3-0.1,0.5-0.1s0.4,0,0.5,0c0.2,0,0.4,0,0.6,0.1c0.2,0,0.4,0.1,0.6,0.2l0.3,0.1l0.3,0.1
		c0.2,0.1,0.4,0.1,0.5,0.1h0.5h0.5h0.4h0.3H955.6z"/>
	<path class="st7" d="M955.5,539.1c0,0.1-0.1,0.1-0.1,0.2c-0.1,0.2-0.2,0.3-0.3,0.4c-0.1,0.1-0.2,0.2-0.3,0.2
		c-0.1,0.1-0.2,0.2-0.3,0.2c-0.1,0.1-0.3,0.1-0.4,0.2l-0.4,0.1l-0.4,0.1l-0.4,0.1l-0.7,0.2l-0.5,0.2l-0.2,0.1l0.1-0.1
		c0.2-0.1,0.3-0.2,0.5-0.3c0.2-0.1,0.5-0.2,0.7-0.3c0.3-0.1,0.6-0.2,0.8-0.2c0.1,0,0.3-0.1,0.4-0.1l0.4-0.1l0.3-0.2l0.3-0.2
		C955.2,539.4,955.4,539.3,955.5,539.1z"/>
	<path class="st7" d="M957.5,539.3c0.1,0.2,0.2,0.4,0.3,0.6c0,0.1,0.1,0.2,0.1,0.3s0,0.2,0.1,0.3c0,0.3,0,0.5,0,0.8
		c0,0.1,0,0.1,0,0.2c0,0.1,0,0.1,0,0.2s-0.1,0.2-0.1,0.3c0,0.1,0,0.2,0,0.3c0,0.1,0,0.2,0,0.3c0,0.1,0.1,0.3,0.2,0.4l0.1,0.1
		c0,0-0.1,0-0.1-0.1c-0.1,0-0.1-0.1-0.2-0.1c-0.1-0.1-0.1-0.1-0.2-0.2c-0.1-0.1-0.1-0.2-0.1-0.3c0-0.1,0-0.2,0-0.4
		c0-0.1,0-0.3,0-0.4c0-0.1,0-0.1,0-0.2v-0.2c0-0.1,0-0.2,0-0.4c0-0.2,0-0.2,0-0.3v-0.3c0-0.1,0-0.2,0-0.3L957.5,539.3z"/>
	<path class="st7" d="M958.9,538.7L958.9,538.7l0.4,0.1h0.4c0.2,0,0.3,0,0.5,0h1.3l-0.1,0.1c-0.1,0.1-0.2,0.1-0.3,0.2l-0.2,0.1
		c-0.1,0-0.2,0-0.2,0.1h-0.2h-0.3c-0.1,0-0.2,0-0.3,0c-0.1,0-0.2,0-0.2,0c-0.2,0-0.3-0.1-0.4-0.2l-0.2-0.1L958.9,538.7z"/>
	<path class="st7" d="M958,536.9c0-0.1,0-0.1,0-0.2c0-0.2,0.1-0.3,0.2-0.5c0.1-0.1,0.1-0.2,0.2-0.3c0.1-0.1,0.2-0.2,0.2-0.3
		c0.1-0.1,0.2-0.2,0.3-0.3c0.1-0.1,0.2-0.2,0.3-0.2l0.4-0.2l0.3-0.2l0.6-0.3l0.6-0.3l-0.1,0.1c-0.1,0.1-0.2,0.2-0.3,0.3
		c-0.2,0.2-0.4,0.3-0.6,0.4c-0.1,0.1-0.2,0.1-0.3,0.2l-0.3,0.2l-0.3,0.2c-0.1,0.1-0.2,0.1-0.3,0.2l-0.2,0.2
		c-0.1,0.1-0.2,0.2-0.2,0.2c-0.1,0.1-0.2,0.2-0.3,0.4L958,536.9z"/>
	<path class="st7" d="M956.1,536.2l-0.1-0.1c-0.1-0.1-0.2-0.2-0.2-0.3s-0.1-0.2-0.1-0.3c0-0.1,0-0.2,0-0.3V535c0-0.1,0-0.1,0-0.2
		s0.1-0.2,0.1-0.3c0-0.1,0.1-0.2,0.1-0.3l0.1-0.3l0.2-0.5l0.2-0.5c0.1,0.2,0.1,0.4,0.1,0.6s0,0.4,0,0.6c0,0.1,0,0.2-0.1,0.3
		c0,0.1-0.1,0.2-0.1,0.3c0,0.1-0.1,0.2-0.1,0.3c0,0.1,0,0.2,0,0.3s0,0.2,0,0.3c0,0.1,0,0.2,0,0.2
		C956.1,535.9,956.1,536.1,956.1,536.2z"/>
</g>
<path class="st7" d="M957.9,537.9c0,0.3-0.5,0.4-1,0.3s-0.8-0.4-0.8-0.7s0.5-0.4,1-0.3S958,537.6,957.9,537.9z"/>
<path class="st7" d="M950.4,557.6c0,0-4.9-0.8-4-3.1c0.9-2.3,2.1-8.3-1.2-12c-3.3-3.7-1.8-5-1.8-5s-3.1,2.1-3.7,4.5
	c-0.6,2.4,4.3,12.7,4.3,12.7C945.8,556.2,948,557.2,950.4,557.6z"/>
<path class="st10" d="M945.8,550.9c-1.2,6.3-8,10.2-15.1,8.8c-7.1-1.4-11.9-7.6-10.6-13.9c1.3-6.3,8-10.2,15.1-8.8
	C942.3,538.4,947,544.7,945.8,550.9z"/>
<path class="st6" d="M945.8,550.9c-1.2,6.3-8,10.2-15.1,8.8c-7.1-1.4-11.9-7.6-10.6-13.9c1.3-6.3,8-10.2,15.1-8.8
	C942.3,538.4,947,544.7,945.8,550.9z"/>
<path class="st7" d="M946,548.3c-0.4,2-1.4,3.8-2.8,5.3c-2.3,2.2-5.1,3.6-8.2,4c-4.3,0.6-8.6-0.9-11.5-4c-1.4-1.3-2.5-2.9-3.2-4.6
	c-0.1-0.4-0.2-0.8-0.3-1.2c0,5.6,4.4,10.7,10.8,12c7.1,1.4,13.9-2.5,15.1-8.8C946,550.1,946.1,549.2,946,548.3z"/>
<path class="st5" d="M936.4,540.6c-0.7,1-1.8,1.7-3,1.8c-1.1,0-2.1,0.4-2.9,1.2c0.5-1.1,1.5-1.9,2.7-2.2c2.1-0.5,2-1.6,2-1.6
	c-1,0.3-2.2,0.2-3.1-0.3c-1.9-0.9-4.6,0.2-4.6,0.2c1.3-0.9,2.8-1.4,4.4-1.3c2.4,0.3,3.5,0.1,3.6,0c-0.4-0.7-0.5-1.5-0.1-2.2
	c0.4-0.9,0.7-1.8,0.8-2.8c0.3,1,0.4,2,0.3,3c-0.2,1.7,0.5,2.1,0.5,2.1c0.4-1,1.2-1.8,2.2-2.1c1-0.2,1.8-0.8,2.4-1.6
	c-0.2,1.1-0.8,2-1.7,2.6c-1.5,0.8-1.5,1.8-1.5,1.8c0.7,0.6,1.6,0.8,2.5,0.6c1.4-0.3,2.8-0.5,3.5,0.3c0,0-1-0.5-3,0.5
	c-0.5-0.9-1.7-1.2-2.6-0.7c-0.9,0.5-1.2,1.7-0.7,2.6c0,0.1,0.1,0.1,0.1,0.2c-0.4,1.3,0.2,1.8,0.9,2c-1,0.2-1.9-0.5-2.1-1.5
	c0-0.1,0-0.2,0-0.3C936.8,542.3,936.6,541.4,936.4,540.6z"/>
<g class="st15">
	<path class="st7" d="M935.5,539.1l-0.2,0.1l-0.3,0.1l-0.4,0.1h-0.2h-0.2c-0.2,0-0.3,0-0.5,0s-0.4,0-0.5-0.1l-0.3-0.1l-0.3-0.1
		c-0.2-0.1-0.3-0.1-0.5-0.2c-0.2,0-0.3-0.1-0.5-0.1c-0.2,0-0.3,0-0.5,0c-0.1,0-0.3,0-0.4,0c-0.3,0-0.6,0-0.9,0l0.2-0.1
		c0.2-0.1,0.4-0.1,0.7-0.2c0.1,0,0.3-0.1,0.4-0.1c0.2,0,0.3,0,0.5,0c0.2,0,0.4,0,0.5,0.1c0.2,0,0.4,0.1,0.5,0.2l0.2,0.1
		c0.1,0,0.2,0.1,0.2,0.1l0.5,0.1c0.2,0,0.3,0,0.5,0h0.4h0.4h0.3L935.5,539.1z"/>
	<path class="st7" d="M935.5,540.7c0,0.1-0.1,0.1-0.1,0.2c-0.1,0.1-0.2,0.3-0.3,0.4c-0.1,0.1-0.2,0.2-0.2,0.2
		c-0.2,0.2-0.4,0.3-0.7,0.4c-0.1,0-0.3,0.1-0.4,0.1l-0.4,0.1l-0.4,0.1l-0.7,0.1c-0.2,0-0.3,0.1-0.5,0.2l-0.2,0.1l0.1-0.1
		c0.1-0.1,0.3-0.2,0.4-0.3c0.2-0.1,0.4-0.2,0.7-0.3c0.2-0.1,0.5-0.1,0.8-0.2l0.4-0.1l0.3-0.1c0.1,0,0.2-0.1,0.3-0.2
		c0.1,0,0.2-0.1,0.3-0.2C935.1,541,935.3,540.9,935.5,540.7z"/>
	<path class="st7" d="M937.3,540.9c0.1,0.2,0.2,0.3,0.2,0.5c0,0.1,0.1,0.2,0.1,0.3c0,0.1,0,0.2,0.1,0.3c0,0.2,0,0.5,0,0.7v0.2
		c0,0.1,0,0.1,0,0.2c0,0.1,0,0.2-0.1,0.3c0,0.1,0,0.2,0,0.3c0,0.1,0,0.2,0,0.3c0,0.1,0.1,0.3,0.2,0.4l0.1,0.1l-0.1-0.1l-0.2-0.1
		l-0.2-0.2c0-0.1-0.1-0.2-0.1-0.3s0-0.2,0-0.3c0-0.1,0-0.2,0-0.4v-0.2c0-0.1,0-0.1,0-0.2c0-0.1,0-0.2,0-0.3c0-0.1,0-0.2,0-0.3v-0.4
		c0-0.1,0-0.2,0-0.3C937.3,541.1,937.3,540.9,937.3,540.9z"/>
	<path class="st7" d="M938.5,540.3l0.4,0.1h0.4h0.4h1.2l-0.1,0.1c-0.1,0.1-0.2,0.1-0.3,0.1l-0.2,0.1l-0.2,0.1h-0.2h-0.2
		c-0.1,0-0.2,0-0.2,0c-0.1,0-0.2,0-0.2,0c-0.1,0-0.3-0.1-0.4-0.2l-0.1-0.1L938.5,540.3C938.6,540.3,938.5,540.3,938.5,540.3z"/>
	<path class="st7" d="M937.7,538.7c0-0.1,0-0.1,0-0.2c0-0.1,0.1-0.3,0.2-0.4c0-0.1,0.1-0.2,0.2-0.3l0.2-0.3c0.1-0.1,0.2-0.2,0.3-0.2
		c0.1-0.1,0.2-0.2,0.3-0.2l0.3-0.2l0.3-0.2l0.5-0.3l0.5-0.3l-0.1,0.1c-0.1,0.1-0.2,0.2-0.3,0.3c-0.2,0.1-0.3,0.3-0.5,0.4
		c-0.1,0.1-0.2,0.1-0.3,0.2l-0.3,0.2c-0.1,0.1-0.2,0.1-0.3,0.2l-0.3,0.2l-0.2,0.2l-0.2,0.2c-0.1,0.1-0.2,0.2-0.3,0.3V538.7z"/>
	<path class="st7" d="M936,538.1c-0.2-0.2-0.3-0.3-0.3-0.4c0-0.1-0.1-0.2-0.1-0.2c0-0.1,0-0.2,0-0.3c0-0.1,0-0.1,0-0.2
		c0-0.1,0-0.1,0-0.2s0.1-0.2,0.1-0.3c0-0.1,0.1-0.2,0.1-0.3l0.1-0.3l0.1-0.5c0.1-0.3,0.1-0.5,0.1-0.5c0.1,0.2,0.1,0.3,0.1,0.5
		c0,0.2,0,0.4,0,0.5c0,0.1,0,0.2-0.1,0.3l-0.1,0.3c0,0.1-0.1,0.2-0.1,0.3s0,0.2,0,0.3c0,0.1,0,0.2,0,0.2c0,0.1,0,0.2,0,0.2
		C936,537.7,936,537.9,936,538.1z"/>
</g>
<path class="st7" d="M937.6,539.6c0,0.2-0.4,0.4-0.9,0.3c-0.5-0.1-0.8-0.3-0.7-0.6s0.4-0.4,0.9-0.3
	C937.4,539.1,937.7,539.3,937.6,539.6z"/>
<path class="st10" d="M1303.6,481.8c2.5-0.3,5,0.5,6.8,2.2c2,1.8,2.9,4.8,4.6,6.9c1,1.3,2.6,2.1,4.2,2.2c3.9,0.1,4-5.5,3.2-8.6
	c-1.3-4.9-4.5-7-8.1-9.8"/>
<path class="st10" d="M1281.3,496c0.3-31.1,34.2-30.2,38.4-16.3c-5.6-1.1-11.3,0.8-15.1,5c-2.3,2.4-4,5.5-6.3,7.9
	c-4.1,4.2-9.8,5.5-15.2,6.4c-0.9,0.2-1.9,0.2-2.8,0c-1-0.4-1.7-1.3-1.7-2.3"/>
<path class="st10" d="M1244.8,469.7c-3.8-0.1-7.6,0.4-11.1,1.6c-2,1.5-3.5,3.5-4.5,5.8c-1.2,3-0.5,6.4,1.7,8.7
	c1.9,1.5,4.3,2.2,6.7,2c1.2,0,2.3-0.3,3.3-0.9c2.5-1.5,3.1-5,4.6-7.6c2-3.6,5.8-5.9,9.9-5.9"/>
<path class="st10" d="M1235.6,481.8c0-2.5,0.5-5,1.5-7.3c1.4-2.5,3.8-4.4,6.5-5.2c0.8-0.3,1.7-0.5,2.5-0.6c0.8-0.1,1.7-0.1,2.5-0.2
	c0.2,0,0.1-0.2,0-0.3c-1.5-0.4-3.2-0.3-4.7,0.2c-1.5,0.4-3,1.2-4.2,2.2c-2.1,1.6-3.6,4-4.2,6.6c-0.3,1.5-0.4,3.1-0.4,4.6
	c0,0.1,0.2,0.2,0.3,0.2C1235.5,481.9,1235.5,481.9,1235.6,481.8z"/>
<path class="st10" d="M1233.6,471.3c5.8-0.9,11.6,1.2,15.6,5.4c1.9,2,3.7,4.5,6.3,4.7c2.6,0.2,6.2,0.5,6.3-5.3
	c0.1-4.4-2.6-5.5-4.9-7.1c-2.4-1.4-5.1-2.2-7.9-2.3C1245.8,466.6,1237.9,466.8,1233.6,471.3z"/>
<g class="st18">
	<path class="st4" d="M1233.6,471.3c5.8-0.9,11.6,1.2,15.6,5.4c1.9,2,3.7,4.5,6.3,4.7c2.6,0.2,6.2,0.5,6.3-5.3
		c0.1-4.4-2.6-5.5-4.9-7.1c-2.4-1.4-5.1-2.2-7.9-2.3C1245.8,466.6,1237.9,466.8,1233.6,471.3z"/>
</g>
<path class="st10" d="M1249.8,468.2c7.2,3.8,9.6,12.7,10.3,20.2c0.1,1.2,0.2,2.5,0.2,3.7c0,1.3,0.1,2.5,0.2,3.8c0,0.2,0.5,0.3,0.5,0
	c0.1-1.1,0.1-2.2,0.1-3.4s-0.1-2.4-0.2-3.6c-0.2-2.3-0.5-4.6-1-6.8c-0.8-3.9-2.6-7.5-5.1-10.5c-1.3-1.6-3-2.8-4.8-3.7
	C1249.8,467.8,1249.6,468.1,1249.8,468.2z"/>
<path class="st10" d="M1264.3,432c-2.6-2.8-6.7-3.4-10.5-3.8c-2.1-0.2-4.3-0.4-6.2,0.4c-1,0.5-2,1.3-2.7,2.2c-1.6,1.7-2.6,3.7-3,6
	c-0.3,2.3,0.5,4.6,2.1,6.2c1.5,1.1,3.4,1.7,5.3,1.7c1.3,0.1,2.5-0.1,3.7-0.5c3-1.2,4.6-4.6,6.9-6.9c2.7-2.7,6.4-4.1,10.2-3.7"/>
<path class="st10" d="M1271.1,447c-8.7-1.5-8.7-8-11-11.6c-3.1-4.9-7.4-6-11.7-7.1c2.9-2.4,6.7-3,11.5-2.6c3.6-0.8,8.3-1.7,11.6-0.2
	c3.4,1.5,5.9,4.6,6.7,8.3C1278.8,437.5,1279.7,444.7,1271.1,447z"/>
<path class="st10" d="M1264.2,482.4c3.4-6.2,2.3-16.9,0.6-23.8c-1.9-6.8-5.6-13-10.7-17.9c-3.5-3.6-7.8-6.3-12.5-7.8
	c-4.8-1.5-10-0.8-14.2,1.8c-4.1,2.7-6.8,8-5.8,13c1.2,6.4,7,11.1,13,13.1C1251.7,466.9,1255,482.5,1264.2,482.4z"/>
<path class="st10" d="M1298.4,461.8c2.8-0.6,5.8,0.3,7.9,2.2c1.9,1.8,3.4,3.6,6.2,3.9c4.1,0.5,9.7-3.6,7-8.2
	c-0.9-1.4-2.1-2.5-3.7-3.1c-1.5-0.6-3.1-1-4.7-1.2c-1.7-0.5-3.4-0.5-5.1-0.2"/>
<g class="st18">
	<path class="st4" d="M1264.2,482.4c3.4-6.2,2.3-16.9,0.6-23.8c-1.9-6.8-5.6-13-10.7-17.9c-3.5-3.6-7.8-6.3-12.5-7.8
		c-4.8-1.5-10-0.8-14.2,1.8c-4.1,2.7-6.8,8-5.8,13c1.2,6.4,7,11.1,13,13.1C1251.7,466.9,1255,482.5,1264.2,482.4z"/>
</g>
<g class="st18">
	<path class="st4" d="M1281.3,496c0.3-31.1,34.2-30.2,38.4-16.3c-5.6-1.1-11.3,0.8-15.1,5c-2.3,2.4-4,5.5-6.3,7.9
		c-4.1,4.2-9.8,5.5-15.2,6.4c-0.9,0.2-1.9,0.2-2.8,0c-1-0.4-1.7-1.3-1.7-2.3"/>
</g>
<path class="st10" d="M1222.8,444.2c4.3-2.9,10-1.5,14.3,0.7c4.3,2.2,8.3,5,11.6,8.5c7.4,7.5,12,17.3,14.6,27.4
	c0.8,3.1,1.4,6.2,1.9,9.3c0.5,3.2,0.8,6.3,1.2,9.5c0,0.3,0.5,0.2,0.5-0.1c-0.1-3-0.4-5.9-0.8-8.8s-1-5.8-1.6-8.6
	c-1.3-5.5-3.3-10.9-5.8-16c-4.5-8.8-11.4-16.7-20.3-21.3c-4.7-2.4-10.9-4.3-15.6-0.9C1222.6,444.1,1222.7,444.4,1222.8,444.2z"/>
<path class="st10" d="M1313.2,455.9c-5.2-0.3-9.4,4.7-11.7,9.9c-2,4.6-5.4,8.3-9.8,10.8c-4.1,2.2-9.9,4-14.1,1.1l-0.3-0.2
	c-2-1.6-2.7-4.7-2.2-7.4c0.6-2.6,1.8-5,3.6-7C1287,452.9,1301.6,451.3,1313.2,455.9z"/>
<g class="st18">
	<path class="st4" d="M1313.2,455.9c-5.2-0.3-9.4,4.7-11.7,9.9c-2,4.6-5.4,8.3-9.8,10.8c-4.1,2.2-9.9,4-14.1,1.1l-0.3-0.2
		c-2-1.6-2.7-4.7-2.2-7.4c0.6-2.6,1.8-5,3.6-7C1287,452.9,1301.6,451.3,1313.2,455.9z"/>
</g>
<g class="st18">
	<path class="st4" d="M1271.1,447c-8.7-1.5-8.7-8-11-11.6c-3.1-4.9-7.4-6-11.7-7.1c2.9-2.4,6.7-3,11.5-2.6c3.6-0.8,8.3-1.7,11.6-0.2
		c3.4,1.5,5.9,4.6,6.7,8.3C1278.8,437.5,1279.7,444.7,1271.1,447z"/>
</g>
<path class="st10" d="M1276.8,504.7c0-5.1,0.5-10.2,1.6-15.2c0.9-4.7,2.1-9.4,3.6-13.9c2.8-7.9,7.8-15.6,15.7-19.1
	c2.4-1,4.9-1.6,7.5-1.7c2.7,0,5.3,0.4,7.9,1.2c0.3,0.1,0.6-0.4,0.2-0.6c-2.2-1-4.6-1.5-6.9-1.5c-2.4-0.1-4.7,0.3-7,1
	c-3.9,1.4-7.4,3.7-10.2,6.8c-6.4,6.9-9.1,16.3-10.9,25.3c-1.3,5.8-2,11.7-1.8,17.6c0,0.1,0.1,0.2,0.3,0.2
	C1276.7,504.8,1276.8,504.8,1276.8,504.7z"/>
<path class="st10" d="M1260.1,426.1c3.9,1,6.2,4.6,7.6,8.1c0.8,2,1.4,4.1,1.8,6.3c0.6,2.6,1,5.2,1.4,7.8c1.4,10.5,1.2,21.3,0.8,31.9
	c-0.1,3-0.3,6-0.4,9c-0.2,3.1-0.4,6.1-0.4,9.2c0,0.3,0.5,0.3,0.5,0c0.4-2.8,0.5-5.6,0.7-8.5c0.2-2.9,0.3-5.5,0.4-8.2
	c0.2-5.6,0.4-11.1,0.3-16.7c0-5.3-0.4-10.7-1-16c-0.3-2.6-0.8-5.1-1.3-7.7c-0.5-2.3-1.1-4.5-1.9-6.7c-1.5-3.8-4-7.8-8.3-8.7
	C1260.2,425.9,1260.1,425.9,1260.1,426.1C1260,426.1,1260,426.2,1260.1,426.1z"/>
<path class="st10" d="M1314.4,473.1c-2.4-1.3-5.5-0.8-8,0.1c-2.6,1-4.9,2.5-7,4.3c-4,3.4-7.1,7.6-9.2,12.4c-1.2,2.8-2.1,5.8-2.4,8.9
	c0,0.2,0.3,0.2,0.3,0c1-5.1,3-10,6-14.3c2.8-4.2,6.6-7.7,11.2-10c1.4-0.7,2.9-1.2,4.4-1.4c1.6-0.2,3.2,0,4.8,0.4
	c0.1,0,0.2,0,0.2-0.1C1314.5,473.2,1314.5,473.2,1314.4,473.1z"/>
<path class="st5" d="M1292.5,538.1h-30.6l-5.6-41.9h41.9L1292.5,538.1z"/>
<path class="st5" d="M1301.7,502.6h-49l-0.7-9.2h50.4L1301.7,502.6z"/>
<path class="st7" d="M1257.1,502.6h40.2l-4.8,35.5l-4.8-0.3l2.6-32.3l-32.9-0.6L1257.1,502.6z"/>
<path class="st7" d="M1291.2,493.5l-1.4,9.1h11.9l0.7-9.2L1291.2,493.5z"/>
<path class="st6" d="M1295.3,513.2H1259v0.7h36.3V513.2z"/>
<path class="st6" d="M1295.3,516H1259v0.7h36.3V516z"/>
<path class="st5" d="M356.4,538.1h2.3l4.9-4.9h97.7l5,4.9h2.2l-5.9-5.9H362.4L356.4,538.1z"/>
<path class="st5" d="M373.9,538.1h2.1l3.4-4.9h66.1l3.4,4.9h2.2l-3.4-4.9l-0.7-1h-69.1l-0.7,1L373.9,538.1z"/>
<path class="st10" d="M662.3,559.6c-12.7-4.9-22.2-15.5-23.6-28.3c-0.2-2.1-0.2-4.2,0-6.4c26.4,1.4,52.9,1.4,79.4-0.1
	c1.6,15-8.3,28.8-23.5,34.7h-32.3V559.6z"/>
<path class="st9" d="M662.3,559.6h32.3c14.7-5.7,24.5-18.8,23.6-33.3l-10,0.3c-0.1,2.1-0.3,4.2-0.7,6.3
	c-2.3,14.2-16.2,24.8-32.8,25.3l-17.2,0.5C658.4,558.9,661.5,559.2,662.3,559.6z"/>
<path class="st10" d="M638,526.2c0,0,29.9,2.7,80.8,0v-1.4c0,0-39.8,2.3-80.8,0V526.2z"/>
<path class="st9" d="M638,526.2c0,0,29.9,2.7,80.8,0v-1.4c0,0-39.8,2.3-80.8,0V526.2z"/>
<path class="st11" d="M681,539.2c-22.6,0-40.8-1.7-41-1.7l0.1-0.7c0.4,0,41.1,3.9,76.8,0l0.1,0.7C705,538.7,693,539.3,681,539.2z"/>
<path class="st11" d="M681,536.2c-22.6,0-40.8-1.7-41-1.7l0.1-0.7c0.4,0,41.1,3.9,76.8,0l0.1,0.7C705,535.7,693,536.3,681,536.2z"/>
</svg>
